  0
SECTION
  2
HEADER
  9
$ACADVER
  1
AC1032
  9
$ACADMAINTVER
 90
      174
  9
$DWGCODEPAGE
  3
ANSI_1252
  9
$LASTSAVEDBY
  1
orang
  9
$REQUIREDVERSIONS
160
                 0
  9
$INSBASE
 10
0.0
 20
0.0
 30
0.0
  9
$EXTMIN
 10
-4.999431250000001
 20
-129.5589373988639
 30
0.0
  9
$EXTMAX
 10
293.6251149611034
 20
98.908809375
 30
0.0
  9
$LIMMIN
 10
0.0
 20
0.0
  9
$LIMMAX
 10
12.0
 20
9.0
  9
$ORTHOMODE
 70
     0
  9
$REGENMODE
 70
     1
  9
$FILLMODE
 70
     1
  9
$QTEXTMODE
 70
     0
  9
$MIRRTEXT
 70
     0
  9
$LTSCALE
 40
1.0
  9
$ATTMODE
 70
     1
  9
$TEXTSIZE
 40
0.2
  9
$TRACEWID
 40
0.05
  9
$TEXTSTYLE
  7
Standard
  9
$CLAYER
  8
0
  9
$CELTYPE
  6
Continuous
  9
$CECOLOR
 62
   256
  9
$CELTSCALE
 40
1.0
  9
$DISPSILH
 70
     0
  9
$DIMSCALE
 40
1.0
  9
$DIMASZ
 40
0.18
  9
$DIMEXO
 40
0.0625
  9
$DIMDLI
 40
0.38
  9
$DIMRND
 40
0.0
  9
$DIMDLE
 40
0.0
  9
$DIMEXE
 40
0.18
  9
$DIMTP
 40
0.0
  9
$DIMTM
 40
0.0
  9
$DIMTXT
 40
0.18
  9
$DIMCEN
 40
0.09
  9
$DIMTSZ
 40
0.0
  9
$DIMTOL
 70
     0
  9
$DIMLIM
 70
     0
  9
$DIMTIH
 70
     1
  9
$DIMTOH
 70
     1
  9
$DIMSE1
 70
     0
  9
$DIMSE2
 70
     0
  9
$DIMTAD
 70
     0
  9
$DIMZIN
 70
     0
  9
$DIMBLK
  1

  9
$DIMASO
 70
     1
  9
$DIMSHO
 70
     1
  9
$DIMPOST
  1

  9
$DIMAPOST
  1

  9
$DIMALT
 70
     0
  9
$DIMALTD
 70
     2
  9
$DIMALTF
 40
25.4
  9
$DIMLFAC
 40
1.0
  9
$DIMTOFL
 70
     0
  9
$DIMTVP
 40
0.0
  9
$DIMTIX
 70
     0
  9
$DIMSOXD
 70
     0
  9
$DIMSAH
 70
     0
  9
$DIMBLK1
  1

  9
$DIMBLK2
  1

  9
$DIMSTYLE
  2
Standard
  9
$DIMCLRD
 70
     0
  9
$DIMCLRE
 70
     0
  9
$DIMCLRT
 70
     0
  9
$DIMTFAC
 40
1.0
  9
$DIMGAP
 40
0.09
  9
$DIMJUST
 70
     0
  9
$DIMSD1
 70
     0
  9
$DIMSD2
 70
     0
  9
$DIMTOLJ
 70
     1
  9
$DIMTZIN
 70
     0
  9
$DIMALTZ
 70
     0
  9
$DIMALTTZ
 70
     0
  9
$DIMUPT
 70
     0
  9
$DIMDEC
 70
     4
  9
$DIMTDEC
 70
     4
  9
$DIMALTU
 70
     2
  9
$DIMALTTD
 70
     2
  9
$DIMTXSTY
  7
Standard
  9
$DIMAUNIT
 70
     0
  9
$DIMADEC
 70
     0
  9
$DIMALTRND
 40
0.0
  9
$DIMAZIN
 70
     0
  9
$DIMDSEP
 70
    46
  9
$DIMATFIT
 70
     3
  9
$DIMFRAC
 70
     0
  9
$DIMLDRBLK
  1

  9
$DIMLUNIT
 70
     2
  9
$DIMLWD
 70
    -2
  9
$DIMLWE
 70
    -2
  9
$DIMTMOVE
 70
     0
  9
$DIMFXL
 40
1.0
  9
$DIMFXLON
 70
     0
  9
$DIMJOGANG
 40
0.7853981633974483
  9
$DIMTFILL
 70
     0
  9
$DIMTFILLCLR
 70
     0
  9
$DIMARCSYM
 70
     0
  9
$DIMLTYPE
  6

  9
$DIMLTEX1
  6

  9
$DIMLTEX2
  6

  9
$DIMTXTDIRECTION
 70
     0
  9
$LUNITS
 70
     2
  9
$LUPREC
 70
     4
  9
$SKETCHINC
 40
0.1
  9
$FILLETRAD
 40
0.0
  9
$AUNITS
 70
     0
  9
$AUPREC
 70
     0
  9
$MENU
  1
.
  9
$ELEVATION
 40
0.0
  9
$PELEVATION
 40
0.0
  9
$THICKNESS
 40
0.0
  9
$LIMCHECK
 70
     0
  9
$CHAMFERA
 40
0.0
  9
$CHAMFERB
 40
0.0
  9
$CHAMFERC
 40
0.0
  9
$CHAMFERD
 40
0.0
  9
$SKPOLY
 70
     0
  9
$TDCREATE
 40
2459351.288518519
  9
$TDUCREATE
 40
2459351.496851852
  9
$TDUPDATE
 40
2459352.982847222
  9
$TDUUPDATE
 40
2459353.191180555
  9
$TDINDWG
 40
0.0067592593
  9
$TDUSRTIMER
 40
0.0067592593
  9
$USRTIMER
 70
     1
  9
$ANGBASE
 50
0.0
  9
$ANGDIR
 70
     1
  9
$PDMODE
 70
     0
  9
$PDSIZE
 40
0.0
  9
$PLINEWID
 40
0.0
  9
$SPLFRAME
 70
     0
  9
$SPLINETYPE
 70
     6
  9
$SPLINESEGS
 70
     8
  9
$HANDSEED
  5
546
  9
$SURFTAB1
 70
     6
  9
$SURFTAB2
 70
     6
  9
$SURFTYPE
 70
     6
  9
$SURFU
 70
     6
  9
$SURFV
 70
     6
  9
$UCSBASE
  2

  9
$UCSNAME
  2

  9
$UCSORG
 10
0.0
 20
0.0
 30
0.0
  9
$UCSXDIR
 10
1.0
 20
0.0
 30
0.0
  9
$UCSYDIR
 10
0.0
 20
1.0
 30
0.0
  9
$UCSORTHOREF
  2

  9
$UCSORTHOVIEW
 70
     0
  9
$UCSORGTOP
 10
0.0
 20
0.0
 30
0.0
  9
$UCSORGBOTTOM
 10
0.0
 20
0.0
 30
0.0
  9
$UCSORGLEFT
 10
0.0
 20
0.0
 30
0.0
  9
$UCSORGRIGHT
 10
0.0
 20
0.0
 30
0.0
  9
$UCSORGFRONT
 10
0.0
 20
0.0
 30
0.0
  9
$UCSORGBACK
 10
0.0
 20
0.0
 30
0.0
  9
$PUCSBASE
  2

  9
$PUCSNAME
  2

  9
$PUCSORG
 10
0.0
 20
0.0
 30
0.0
  9
$PUCSXDIR
 10
1.0
 20
0.0
 30
0.0
  9
$PUCSYDIR
 10
0.0
 20
1.0
 30
0.0
  9
$PUCSORTHOREF
  2

  9
$PUCSORTHOVIEW
 70
     0
  9
$PUCSORGTOP
 10
0.0
 20
0.0
 30
0.0
  9
$PUCSORGBOTTOM
 10
0.0
 20
0.0
 30
0.0
  9
$PUCSORGLEFT
 10
0.0
 20
0.0
 30
0.0
  9
$PUCSORGRIGHT
 10
0.0
 20
0.0
 30
0.0
  9
$PUCSORGFRONT
 10
0.0
 20
0.0
 30
0.0
  9
$PUCSORGBACK
 10
0.0
 20
0.0
 30
0.0
  9
$USERI1
 70
     0
  9
$USERI2
 70
     0
  9
$USERI3
 70
     0
  9
$USERI4
 70
     0
  9
$USERI5
 70
     0
  9
$USERR1
 40
0.0
  9
$USERR2
 40
0.0
  9
$USERR3
 40
0.0
  9
$USERR4
 40
0.0
  9
$USERR5
 40
0.0
  9
$WORLDVIEW
 70
     1
  9
$SHADEDGE
 70
     3
  9
$SHADEDIF
 70
    70
  9
$TILEMODE
 70
     1
  9
$MAXACTVP
 70
    64
  9
$PINSBASE
 10
0.0
 20
0.0
 30
0.0
  9
$PLIMCHECK
 70
     0
  9
$PEXTMIN
 10
1.000000000000000E+20
 20
1.000000000000000E+20
 30
1.000000000000000E+20
  9
$PEXTMAX
 10
-1.000000000000000E+20
 20
-1.000000000000000E+20
 30
-1.000000000000000E+20
  9
$PLIMMIN
 10
0.0
 20
0.0
  9
$PLIMMAX
 10
12.0
 20
9.0
  9
$UNITMODE
 70
     0
  9
$VISRETAIN
 70
     1
  9
$PLINEGEN
 70
     0
  9
$PSLTSCALE
 70
     1
  9
$TREEDEPTH
 70
  3020
  9
$CMLSTYLE
  2
Standard
  9
$CMLJUST
 70
     0
  9
$CMLSCALE
 40
1.0
  9
$PROXYGRAPHICS
 70
     1
  9
$MEASUREMENT
 70
     0
  9
$CELWEIGHT
370
    -1
  9
$ENDCAPS
280
     0
  9
$JOINSTYLE
280
     0
  9
$LWDISPLAY
290
     0
  9
$INSUNITS
 70
     4
  9
$HYPERLINKBASE
  1

  9
$STYLESHEET
  1

  9
$XEDIT
290
     1
  9
$CEPSNTYPE
380
     0
  9
$PSTYLEMODE
290
     1
  9
$FINGERPRINTGUID
  2
{DB842316-28E5-164D-A8F6-9029816CAF0B}
  9
$VERSIONGUID
  2
{C6C9A9BA-A968-FC46-8624-1D997FD9CDC9}
  9
$EXTNAMES
290
     1
  9
$PSVPSCALE
 40
0.0
  9
$OLESTARTUP
290
     0
  9
$SORTENTS
280
   127
  9
$INDEXCTL
280
     0
  9
$HIDETEXT
280
     0
  9
$XCLIPFRAME
280
     2
  9
$HALOGAP
280
     0
  9
$OBSCOLOR
 70
   257
  9
$OBSLTYPE
280
     0
  9
$INTERSECTIONDISPLAY
280
     0
  9
$INTERSECTIONCOLOR
 70
   257
  9
$DIMASSOC
280
     1
  9
$PROJECTNAME
  1
BOARD
  9
$CAMERADISPLAY
290
     0
  9
$LENSLENGTH
 40
50.0
  9
$CAMERAHEIGHT
 40
0.0
  9
$STEPSPERSEC
 40
2.0
  9
$STEPSIZE
 40
6.0
  9
$3DDWFPREC
 40
2.0
  9
$PSOLWIDTH
 40
0.25
  9
$PSOLHEIGHT
 40
4.0
  9
$LOFTANG1
 40
1.570796326794896
  9
$LOFTANG2
 40
1.570796326794896
  9
$LOFTMAG1
 40
0.0
  9
$LOFTMAG2
 40
0.0
  9
$LOFTPARAM
 70
     7
  9
$LOFTNORMALS
280
     1
  9
$LATITUDE
 40
37.795
  9
$LONGITUDE
 40
-122.394
  9
$NORTHDIRECTION
 40
0.0
  9
$TIMEZONE
 70
 -8000
  9
$LIGHTGLYPHDISPLAY
280
     1
  9
$TILEMODELIGHTSYNCH
280
     1
  9
$CMATERIAL
347
11
  9
$SOLIDHIST
280
     0
  9
$SHOWHIST
280
     1
  9
$DWFFRAME
280
     2
  9
$DGNFRAME
280
     0
  9
$REALWORLDSCALE
290
     1
  9
$INTERFERECOLOR
 62
     1
  9
$INTERFEREOBJVS
345
33
  9
$INTERFEREVPVS
346
30
  9
$CSHADOW
280
     0
  9
$SHADOWPLANELOCATION
 40
0.0
  0
ENDSEC
  0
SECTION
  2
CLASSES
  0
CLASS
  1
ACDBDICTIONARYWDFLT
  2
AcDbDictionaryWithDefault
  3
ObjectDBX Classes
 90
        0
 91
        1
280
     0
281
     0
  0
CLASS
  1
MATERIAL
  2
AcDbMaterial
  3
ObjectDBX Classes
 90
     1153
 91
        3
280
     0
281
     0
  0
CLASS
  1
VISUALSTYLE
  2
AcDbVisualStyle
  3
ObjectDBX Classes
 90
     4095
 91
       24
280
     0
281
     0
  0
CLASS
  1
SCALE
  2
AcDbScale
  3
ObjectDBX Classes
 90
     1153
 91
       17
280
     0
281
     0
  0
CLASS
  1
TABLESTYLE
  2
AcDbTableStyle
  3
ObjectDBX Classes
 90
     4095
 91
        1
280
     0
281
     0
  0
CLASS
  1
MLEADERSTYLE
  2
AcDbMLeaderStyle
  3
ACDB_MLEADERSTYLE_CLASS
 90
     4095
 91
        1
280
     0
281
     0
  0
CLASS
  1
ACDBSECTIONVIEWSTYLE
  2
AcDbSectionViewStyle
  3
ObjectDBX Classes
 90
     1025
 91
        1
280
     0
281
     0
  0
CLASS
  1
ACDBDETAILVIEWSTYLE
  2
AcDbDetailViewStyle
  3
ObjectDBX Classes
 90
     1025
 91
        1
280
     0
281
     0
  0
CLASS
  1
DICTIONARYVAR
  2
AcDbDictionaryVar
  3
ObjectDBX Classes
 90
        0
 91
        9
280
     0
281
     0
  0
CLASS
  1
CELLSTYLEMAP
  2
AcDbCellStyleMap
  3
ObjectDBX Classes
 90
     1152
 91
        1
280
     0
281
     0
  0
ENDSEC
  0
SECTION
  2
TABLES
  0
TABLE
  2
VPORT
  5
8
330
0
100
AcDbSymbolTable
 70
     1
  0
VPORT
  5
522
330
8
100
AcDbSymbolTableRecord
100
AcDbViewportTableRecord
  2
*Active
 70
     0
 10
0.0
 20
0.0
 11
1.0
 21
1.0
 12
185.380377651464
 22
41.48121771791602
 13
0.0
 23
0.0
 14
1.0
 24
1.0
 15
0.0
 25
0.0
 16
0.0
 26
0.0
 36
1.0
 17
0.0
 27
0.0
 37
0.0
 40
215.3947446693365
 41
2.265643447461629
 42
50.0
 43
0.0
 44
0.0
 50
0.0
 51
0.0
 71
     0
 72
  1000
 73
     1
 74
     3
 75
     0
 76
     0
 77
     0
 78
     0
281
     0
 65
     1
110
0.0
120
0.0
130
0.0
111
1.0
121
0.0
131
0.0
112
0.0
122
1.0
132
0.0
 79
     0
146
0.0
348
2F
 60
     3
 61
     5
292
     1
282
     1
141
0.0
142
0.0
 63
   250
421
  3355443
1001
ACAD_NAV_VCDISPLAY
1070
     1
  0
ENDTAB
  0
TABLE
  2
LTYPE
  5
5
330
0
100
AcDbSymbolTable
 70
     1
  0
LTYPE
  5
5A
330
5
100
AcDbSymbolTableRecord
100
AcDbLinetypeTableRecord
  2
ByBlock
 70
     0
  3

 72
    65
 73
     0
 40
0.0
  0
LTYPE
  5
5B
330
5
100
AcDbSymbolTableRecord
100
AcDbLinetypeTableRecord
  2
ByLayer
 70
     0
  3

 72
    65
 73
     0
 40
0.0
  0
LTYPE
  5
5C
330
5
100
AcDbSymbolTableRecord
100
AcDbLinetypeTableRecord
  2
Continuous
 70
     0
  3
Solid line
 72
    65
 73
     0
 40
0.0
  0
ENDTAB
  0
TABLE
  2
LAYER
  5
2
330
0
100
AcDbSymbolTable
 70
     4
  0
LAYER
  5
54
102
{ACAD_XDICTIONARY
360
53D
102
}
330
2
100
AcDbSymbolTableRecord
100
AcDbLayerTableRecord
  2
0
 70
     0
 62
     7
  6
Continuous
370
    -3
390
F
347
21
348
0
  0
LAYER
  5
73
102
{ACAD_XDICTIONARY
360
53F
102
}
330
2
100
AcDbSymbolTableRecord
100
AcDbLayerTableRecord
  2
outline
 70
     0
 62
     7
  6
Continuous
370
    -3
390
F
347
21
348
0
  0
LAYER
  5
162
102
{ACAD_XDICTIONARY
360
541
102
}
330
2
100
AcDbSymbolTableRecord
100
AcDbLayerTableRecord
  2
holes
 70
     0
 62
     7
  6
Continuous
370
    -3
390
F
347
21
348
0
  0
LAYER
  5
525
330
2
100
AcDbSymbolTableRecord
100
AcDbLayerTableRecord
  2
Defpoints
 70
     0
 62
     7
  6
Continuous
290
     0
370
    -3
390
F
347
21
348
0
  0
ENDTAB
  0
TABLE
  2
STYLE
  5
3
330
0
100
AcDbSymbolTable
 70
     2
  0
STYLE
  5
55
330
3
100
AcDbSymbolTableRecord
100
AcDbTextStyleTableRecord
  2
Standard
 70
     0
 40
0.0
 41
1.0
 50
0.0
 71
     0
 42
0.2
  3
txt
  4

  0
STYLE
  5
59
330
3
100
AcDbSymbolTableRecord
100
AcDbTextStyleTableRecord
  2
Annotative
 70
     0
 40
0.0
 41
1.0
 50
0.0
 71
     0
 42
0.2
  3
txt
  4

1001
AcadAnnotative
1000
AnnotativeData
1002
{
1070
     1
1070
     1
1002
}
  0
ENDTAB
  0
TABLE
  2
VIEW
  5
6
330
0
100
AcDbSymbolTable
 70
     0
  0
ENDTAB
  0
TABLE
  2
UCS
  5
7
330
0
100
AcDbSymbolTable
 70
     0
  0
ENDTAB
  0
TABLE
  2
APPID
  5
9
330
0
100
AcDbSymbolTable
 70
     3
  0
APPID
  5
56
330
9
100
AcDbSymbolTableRecord
100
AcDbRegAppTableRecord
  2
ACAD
 70
     0
  0
APPID
  5
5D
330
9
100
AcDbSymbolTableRecord
100
AcDbRegAppTableRecord
  2
AcadAnnotative
 70
     0
  0
APPID
  5
521
330
9
100
AcDbSymbolTableRecord
100
AcDbRegAppTableRecord
  2
ACAD_NAV_VCDISPLAY
 70
     0
  0
ENDTAB
  0
TABLE
  2
DIMSTYLE
  5
A
330
0
100
AcDbSymbolTable
 70
     2
100
AcDbDimStyleTable
 71
     1
340
57
  0
DIMSTYLE
105
57
330
A
100
AcDbSymbolTableRecord
100
AcDbDimStyleTableRecord
  2
Standard
 70
     0
340
55
  0
DIMSTYLE
105
58
330
A
100
AcDbSymbolTableRecord
100
AcDbDimStyleTableRecord
  2
Annotative
 70
     0
340
55
1001
AcadAnnotative
1000
AnnotativeData
1002
{
1070
     1
1070
     1
1002
}
  0
ENDTAB
  0
TABLE
  2
BLOCK_RECORD
  5
1
330
0
100
AcDbSymbolTable
 70
     1
  0
BLOCK_RECORD
  5
6F
330
1
100
AcDbSymbolTableRecord
100
AcDbBlockTableRecord
  2
*Model_Space
340
72
 70
     0
280
     1
281
     0
  0
BLOCK_RECORD
  5
6B
330
1
100
AcDbSymbolTableRecord
100
AcDbBlockTableRecord
  2
*Paper_Space
340
6E
 70
     0
280
     1
281
     0
  0
BLOCK_RECORD
  5
526
330
1
100
AcDbSymbolTableRecord
100
AcDbBlockTableRecord
  2
*D0
340
0
 70
     0
280
     1
281
     0
  0
ENDTAB
  0
ENDSEC
  0
SECTION
  2
BLOCKS
  0
BLOCK
  5
70
330
6F
100
AcDbEntity
  8
0
100
AcDbBlockBegin
  2
*Model_Space
 70
     0
 10
0.0
 20
0.0
 30
0.0
  3
*Model_Space
  1

  0
ENDBLK
  5
71
330
6F
100
AcDbEntity
  8
0
100
AcDbBlockEnd
  0
BLOCK
  5
6C
330
6B
100
AcDbEntity
 67
     1
  8
0
100
AcDbBlockBegin
  2
*Paper_Space
 70
     0
 10
0.0
 20
0.0
 30
0.0
  3
*Paper_Space
  1

  0
ENDBLK
  5
6D
330
6B
100
AcDbEntity
 67
     1
  8
0
100
AcDbBlockEnd
  0
BLOCK
  5
527
330
526
100
AcDbEntity
  8
0
100
AcDbBlockBegin
  2
*D0
 70
     1
 10
0.0
 20
0.0
 30
0.0
  3
*D0
  1

  0
LINE
  5
529
330
526
100
AcDbEntity
  8
0
  6
Continuous
 62
     0
440
 16777216
370
    -2
100
AcDbLine
 10
137.2531000000001
 20
29.33630937500002
 30
0.0
 11
133.1916346396264
 21
29.33630937500002
 31
0.0
  0
LINE
  5
52A
330
526
100
AcDbEntity
  8
0
  6
Continuous
 62
     0
440
 16777216
370
    -2
100
AcDbLine
 10
136.25335
 20
19.13113125
 30
0.0
 11
133.1916346396264
 21
19.13113125
 31
0.0
  0
LINE
  5
52B
330
526
100
AcDbEntity
  8
0
  6
Continuous
 62
     0
440
 16777216
370
    -2
100
AcDbLine
 10
133.3716346396264
 20
29.15630937500002
 30
0.0
 11
133.3716346396264
 21
24.41372031250001
 31
0.0
  0
LINE
  5
52C
330
526
100
AcDbEntity
  8
0
  6
Continuous
 62
     0
440
 16777216
370
    -2
100
AcDbLine
 10
133.3716346396264
 20
19.31113125
 30
0.0
 11
133.3716346396264
 21
24.05372031250001
 31
0.0
  0
SOLID
  5
52D
330
526
100
AcDbEntity
  8
0
  6
Continuous
 62
     0
440
 16777216
100
AcDbTrace
 10
133.3416346396264
 20
29.15630937500002
 30
0.0
 11
133.4016346396264
 21
29.15630937500002
 31
0.0
 12
133.3716346396264
 22
29.33630937500002
 32
0.0
 13
133.3716346396264
 23
29.33630937500002
 33
0.0
  0
SOLID
  5
52E
330
526
100
AcDbEntity
  8
0
  6
Continuous
 62
     0
440
 16777216
100
AcDbTrace
 10
133.3416346396264
 20
19.31113125
 30
0.0
 11
133.4016346396264
 21
19.31113125
 31
0.0
 12
133.3716346396264
 22
19.13113125
 32
0.0
 13
133.3716346396264
 23
19.13113125
 33
0.0
  0
MTEXT
  5
52F
330
526
100
AcDbEntity
  8
0
  6
Continuous
 62
     0
440
 16777216
100
AcDbMText
 10
133.3716346396263
 20
24.23372031249997
 30
0.0
 40
0.18
 41
0.0
 46
0.0
 71
     5
 72
     1
  1
\A1;10.2052
 73
     1
 44
1.0
  0
POINT
  5
530
330
526
100
AcDbEntity
  8
Defpoints
  6
Continuous
 62
     0
440
 16777216
100
AcDbPoint
 10
137.3156
 20
29.33630937500002
 30
0.0
  0
POINT
  5
531
330
526
100
AcDbEntity
  8
Defpoints
  6
Continuous
 62
     0
440
 16777216
100
AcDbPoint
 10
136.31585
 20
19.13113125
 30
0.0
  0
POINT
  5
532
330
526
100
AcDbEntity
  8
Defpoints
  6
Continuous
 62
     0
440
 16777216
100
AcDbPoint
 10
133.3716346396264
 20
19.13113125
 30
0.0
  0
ENDBLK
  5
528
330
526
100
AcDbEntity
  8
0
100
AcDbBlockEnd
  0
ENDSEC
  0
SECTION
  2
ENTITIES
  0
LWPOLYLINE
  5
74
330
6F
100
AcDbEntity
  8
outline
100
AcDbPolyline
 90
      236
 70
     1
 43
0.0
 10
-4.999431250000001
 20
17.26113125
 10
-4.966490625
 20
16.26198125
 10
-4.848140625
 20
15.269309375
 10
-4.645240625
 20
14.29041875
 10
-4.359290624999999
 20
13.3325
 10
-3.992368749999999
 20
12.40258125
 10
-3.547190625
 20
11.50748125
 10
-3.02701875
 20
10.65376875
 10
-2.43566875
 20
9.847740625
 10
-1.777481249999999
 20
9.095290625
 10
-1.057299999999999
 20
8.401950000000001
 10
-0.2804
 20
7.772809374999999
 10
0.5475093750000001
 20
7.212490625
 10
1.420340624999999
 20
6.7251
 10
2.3317
 20
6.314231250000001
 10
3.274890625
 20
5.982890625
 10
4.242981250000001
 20
5.733509375000001
 10
5.228859374999999
 20
5.56791875
 10
6.225300000000001
 20
5.48735
 10
6.666549999999999
 20
5.479
 10
60.79516875
 20
5.479
 10
60.88160937499999
 20
5.47895
 10
61.88158125000001
 20
5.47213125
 10
62.88140937499999
 20
5.453740625
 10
63.88095000000001
 20
5.42378125
 10
64.88009062500001
 20
5.382268750000001
 10
65.87866875
 20
5.329209375
 10
66.87658125
 20
5.264600000000001
 10
67.87366875
 20
5.18845
 10
68.869809375
 20
5.10076875
 10
69.86486875
 20
5.00158125
 10
70.85871875000002
 20
4.890890624999999
 10
71.85121875
 20
4.768709375
 10
72.84225000000001
 20
4.635059374999999
 10
73.831659375
 20
4.489959375000001
 10
74.81931875000002
 20
4.333418749999999
 10
75.805109375
 20
4.16546875
 10
119.46261875
 20
-3.53446875
 10
120.448309375
 20
-3.703059375
 10
121.435690625
 20
-3.8614
 10
122.42465
 20
-4.0095
 10
123.4151
 20
-4.147340625
 10
124.40693125
 20
-4.274890625
 10
125.40003125
 20
-4.392159375
 10
126.394290625
 20
-4.499109375000001
 10
127.3896
 20
-4.595749999999999
 10
128.38586875
 20
-4.682059375000001
 10
129.38296875
 20
-4.75803125
 10
130.380809375
 20
-4.823659375
 10
131.37928125
 20
-4.878940625
 10
132.378259375
 20
-4.923849999999999
 10
133.377659375
 20
-4.958409375
 10
134.377359375
 20
-4.982590625
 10
135.377259375
 20
-4.996409374999999
 10
136.20948125
 20
-5.0
 10
150.750590625
 20
-5.0
 10
151.582709375
 20
-4.996409374999999
 10
152.582609375
 20
-4.982600000000001
 10
153.582309375
 20
-4.958409375
 10
154.581709375
 20
-4.923859375
 10
155.5807
 20
-4.878950000000001
 10
156.57916875
 20
-4.823690625
 10
157.577009375
 20
-4.75806875
 10
158.574109375
 20
-4.6821
 10
159.57038125
 20
-4.5958
 10
160.565690625
 20
-4.49918125
 10
161.55995
 20
-4.392240625
 10
162.55305
 20
-4.274990625
 10
163.54488125
 20
-4.14745
 10
164.53533125
 20
-4.009631249999999
 10
165.524309375
 20
-3.861549999999999
 10
166.511690625
 20
-3.70321875
 10
167.49736875
 20
-3.534659375
 10
211.162040625
 20
4.16561875
 10
211.2473
 20
4.180609375
 10
212.233259375
 20
4.347590625
 10
213.22108125
 20
4.503159375
 10
214.21063125
 20
4.647281249999999
 10
215.201790625
 20
4.779940625
 10
216.194409375
 20
4.901131250000001
 10
217.18836875
 20
5.010831249999999
 10
218.18353125
 20
5.109018750000001
 10
219.179759375
 20
5.195681249999999
 10
220.17693125
 20
5.27081875
 10
221.1749
 20
5.334409374999999
 10
222.173540625
 20
5.386449999999999
 10
223.17271875
 20
5.426940625
 10
224.172290625
 20
5.455859375
 10
225.172140625
 20
5.473209375000001
 10
226.172109375
 20
5.479
 10
279.96943125
 20
5.479
 10
280.96821875
 20
5.521659375
 10
281.9597187500001
 20
5.649340625000001
 10
282.936740625
 20
5.8611
 10
283.8921312500001
 20
6.1554
 10
284.8189500000001
 20
6.5301
 10
285.710440625
 20
6.982468750000001
 10
286.5601093750001
 20
7.509218749999999
 10
287.361759375
 20
8.106490625000001
 10
288.10956875
 20
8.769949999999999
 10
288.79806875
 20
9.49476875
 10
289.422259375
 20
10.27565
 10
289.977590625
 20
11.10691875
 10
290.460009375
 20
11.982509375
 10
290.8660093750001
 20
12.89605
 10
291.1926312500001
 20
13.840890625
 10
291.437490625
 20
14.81013125
 10
291.5988000000001
 20
15.79673125
 10
291.6754
 20
16.79348125
 10
291.66673125
 20
17.793140625
 10
291.572840625
 20
18.78841875
 10
291.49861875
 20
19.25721875
 10
279.1222
 20
86.91055
 10
278.914709375
 20
87.888590625
 10
278.64025
 20
88.84998125
 10
278.30011875
 20
89.79015000000002
 10
277.89595
 20
90.70461874999999
 10
277.42966875
 20
91.58901874999999
 10
276.90348125
 20
92.439159375
 10
276.319909375
 20
93.25098125
 10
275.68173125
 20
94.02060937500001
 10
274.99198125
 20
94.74438125
 10
274.2539406250001
 20
95.41885
 10
273.471140625
 20
96.04080000000001
 10
272.6473
 20
96.60726875000001
 10
271.78635
 20
97.11556874999999
 10
270.89238125
 20
97.56325937500001
 10
269.96966875
 20
97.94821875
 10
269.022590625
 20
98.26861875
 10
268.05566875
 20
98.52291875
 10
267.073509375
 20
98.709909375
 10
266.0808
 20
98.82871874999999
 10
265.08225
 20
98.878759375
 10
264.761409375
 20
98.88019062499999
 10
209.90398125
 20
98.88019062499999
 10
208.90401875
 20
98.872259375
 10
207.904309375
 20
98.84845
 10
206.905109375
 20
98.80876875
 10
205.90666875
 20
98.753240625
 10
204.90923125
 20
98.68185937500001
 10
203.91305
 20
98.59465937500001
 10
202.91838125
 20
98.49165000000001
 10
201.92546875
 20
98.37286875
 10
200.93456875
 20
98.23835
 10
199.94593125
 20
98.08810000000001
 10
198.9598
 20
97.922190625
 10
197.97643125
 20
97.740640625
 10
196.996059375
 20
97.5435
 10
196.01895
 20
97.33083125
 10
195.045340625
 20
97.10266875000002
 10
194.07546875
 20
96.85908125
 10
193.109590625
 20
96.60013125
 10
192.84903125
 20
96.52745000000001
 10
171.391440625
 20
90.49243125
 10
170.88168125
 20
90.3518
 10
169.91396875
 20
90.0998
 10
168.94168125
 20
89.8661
 10
167.96515
 20
89.650790625
 10
166.98473125
 20
89.453940625
 10
166.00076875
 20
89.27563125
 10
165.01361875
 20
89.11590937499999
 10
164.023640625
 20
88.97485937500002
 10
163.03116875
 20
88.85250937500002
 10
162.036559375
 20
88.7489
 10
161.04018125
 20
88.664090625
 10
160.04238125
 20
88.598090625
 10
159.0435
 20
88.55093125000001
 10
158.04391875
 20
88.52263125
 10
157.04398125
 20
88.51319062500001
 10
129.58678125
 20
88.51319062500001
 10
128.58766875
 20
88.55516875000001
 10
127.58925
 20
88.61128125
 10
126.59173125
 20
88.68153125
 10
125.595309375
 20
88.765890625
 10
124.60016875
 20
88.86435
 10
123.60653125
 20
88.9769
 10
122.614590625
 20
89.10350000000002
 10
121.624540625
 20
89.24413125000002
 10
120.63656875
 20
89.39876875000001
 10
119.6509
 20
89.56738125000002
 10
118.667709375
 20
89.74993125000001
 10
117.687209375
 20
89.94638124999999
 10
116.70958125
 20
90.156690625
 10
115.73503125
 20
90.38083124999999
 10
115.24625
 20
90.49873125000001
 10
93.93430937499999
 20
96.51561875
 10
92.96983125
 20
96.77975000000001
 10
92.00131875
 20
97.02869062499999
 10
91.02901875
 20
97.26238125000001
 10
90.05316875
 20
97.48075937500001
 10
89.074
 20
97.68378124999999
 10
88.09176875
 20
97.87138125
 10
87.10670937500003
 20
98.04351875000001
 10
86.11905937500001
 20
98.20016875
 10
85.12908125
 20
98.34126875
 10
84.137
 20
98.46679062500001
 10
83.14306874999999
 20
98.576709375
 10
82.14753124999999
 20
98.671
 10
81.15064062500001
 20
98.74963125
 10
80.15263125
 20
98.8283
 10
79.15375937500001
 20
98.859840625
 10
78.15426874999999
 20
98.89139062499999
 10
77.15440000000002
 20
98.907240625
 10
76.88569062500002
 20
98.908809375
 10
21.96353125000001
 20
98.908809375
 10
21.213859375
 20
98.889559375
 10
20.46616875
 20
98.83183125
 10
19.72243125
 20
98.73579062500001
 10
18.9846
 20
98.60168125000001
 10
18.25463125
 20
98.42986875000001
 10
17.534440625
 20
98.22079999999999
 10
16.825940625
 20
97.97503125
 10
16.130990625
 20
97.69320937499999
 10
15.451440625
 20
97.37606875
 10
14.789059375
 20
97.02445937500002
 10
14.145609375
 20
96.6393
 10
13.52278125
 20
96.221609375
 10
12.92221875
 20
95.77249062499999
 10
12.34551875
 20
95.29313124999999
 10
11.794190625
 20
94.78478125
 10
11.269690625
 20
94.24879999999999
 10
10.7734
 20
93.6866
 10
10.306640625
 20
93.09965
 10
9.87061875
 20
92.489509375
 10
9.46651875
 20
91.85779062500001
 10
9.09538125
 20
91.20614999999999
 10
8.758190625000001
 20
90.53631875
 10
8.455840625
 20
89.85005000000002
 10
8.18911875
 20
89.14916875000001
 10
7.95875
 20
88.43550937500003
 10
7.765318749999999
 20
87.71096875000001
 10
7.60935
 20
86.97745000000001
 10
7.60275
 20
86.941709375
 10
-4.808709375
 20
19.24955
 10
-4.946699999999999
 20
18.25943125
 10
-4.999431250000001
 20
17.26113125
  0
LWPOLYLINE
  5
163
330
6F
100
AcDbEntity
  8
holes
100
AcDbPolyline
 90
        5
 70
     1
 43
0.0
 10
256.32985
 20
72.75913125000002
 10
270.33085
 20
72.75913125000002
 10
270.33085
 20
86.75813125000001
 10
256.32985
 20
86.75813125000001
 10
256.32985
 20
72.75913125000002
  0
LWPOLYLINE
  5
16A
330
6F
100
AcDbEntity
  8
holes
100
AcDbPolyline
 90
        5
 70
     1
 43
0.0
 10
54.74645
 20
74.24913125
 10
68.53374999999999
 20
71.81813125000002
 10
70.96475000000002
 20
85.60713125000003
 10
57.17745
 20
88.03713124999999
 10
54.74645
 20
74.24913125
  0
LWPOLYLINE
  5
171
330
6F
100
AcDbEntity
  8
holes
100
AcDbPolyline
 90
        5
 70
     1
 43
0.0
 10
177.73485
 20
80.81113124999999
 10
180.16585
 20
67.02413124999999
 10
193.95285
 20
69.45413125
 10
191.52185
 20
83.24213124999999
 10
177.73485
 20
80.81113124999999
  0
LWPOLYLINE
  5
178
330
6F
100
AcDbEntity
  8
holes
100
AcDbPolyline
 90
        5
 70
     1
 43
0.0
 10
111.35885
 20
66.20113125
 10
125.14685
 20
63.77013125000001
 10
127.57785
 20
77.55713124999999
 10
113.78985
 20
79.98813125000002
 10
111.35885
 20
66.20113125
  0
LWPOLYLINE
  5
17F
330
6F
100
AcDbEntity
  8
holes
100
AcDbPolyline
 90
        5
 70
     1
 43
0.0
 10
158.97485
 20
77.50213125000001
 10
161.40485
 20
63.71613124999999
 10
175.19285
 20
66.14713125
 10
172.76185
 20
79.93413125000002
 10
158.97485
 20
77.50213125000001
  0
LWPOLYLINE
  5
186
330
6F
100
AcDbEntity
  8
holes
100
AcDbPolyline
 90
        5
 70
     1
 43
0.0
 10
218.89585
 20
66.79113125
 10
221.32685
 20
53.00413125
 10
235.11385
 20
55.43413125
 10
232.68285
 20
69.22113125
 10
218.89585
 20
66.79113125
  0
LWPOLYLINE
  5
18D
330
6F
100
AcDbEntity
  8
holes
100
AcDbPolyline
 90
        5
 70
     1
 43
0.0
 10
67.88355
 20
39.04813125
 10
81.67085
 20
36.61713125
 10
84.10285
 20
50.40413125
 10
70.31425
 20
52.83513125
 10
67.88355
 20
39.04813125
  0
LWPOLYLINE
  5
194
330
6F
100
AcDbEntity
  8
holes
100
AcDbPolyline
 90
        5
 70
     1
 43
0.0
 10
202.44985
 20
50.34913125
 10
204.88085
 20
36.56313125000001
 10
218.66785
 20
38.99413125
 10
216.23785
 20
52.78013125
 10
202.44985
 20
50.34913125
  0
LWPOLYLINE
  5
19B
330
6F
100
AcDbEntity
  8
holes
100
AcDbPolyline
 90
        5
 70
     1
 43
0.0
 10
244.90085
 20
34.65913125
 10
258.89985
 20
34.65913125
 10
258.89985
 20
48.65813124999999
 10
244.90085
 20
48.65813124999999
 10
244.90085
 20
34.65913125
  0
LWPOLYLINE
  5
1A2
330
6F
100
AcDbEntity
  8
holes
100
AcDbPolyline
 90
        5
 70
     1
 43
0.0
 10
85.98245
 20
31.98813125
 10
99.76985
 20
29.55813125
 10
102.20085
 20
43.34313125
 10
88.41345
 20
45.77413125
 10
85.98245
 20
31.98813125
  0
LWPOLYLINE
  5
1A9
330
6F
100
AcDbEntity
  8
holes
100
AcDbPolyline
 90
        5
 70
     1
 43
0.0
 10
104.74285
 20
28.68013125
 10
118.53085
 20
26.24913125
 10
120.96185
 20
40.03613125
 10
107.17385
 20
42.46813125
 10
104.74285
 20
28.68013125
  0
LWPOLYLINE
  5
1B0
330
6F
100
AcDbEntity
  8
holes
100
AcDbPolyline
 90
       24
 70
     1
 43
0.0
 10
164.20785
 20
20.39413125
 10
166.63885
 20
6.606131250000001
 10
189.80685
 20
10.69213125
 10
189.80685
 20
10.69413125
 10
190.09085
 20
10.74213125
 10
222.63885
 20
16.48113125
 10
220.20785
 20
30.26813125
 10
220.20585
 20
30.26813125
 10
219.95785
 20
31.67613125
 10
206.17085
 20
29.24513125
 10
206.41885
 20
27.83813125
 10
196.17185
 20
26.03113125
 10
196.00385
 20
26.98613125
 10
192.75285
 20
26.41313125000001
 10
192.75285
 20
26.41213125
 10
188.07585
 20
25.58713125
 10
188.24285
 20
24.63213125
 10
172.73285
 20
21.89813125
 10
172.56485
 20
22.85313125
 10
169.31385
 20
22.28013125
 10
169.31385
 20
22.27913125
 10
166.96985
 20
21.86513125
 10
167.13785
 20
20.91013125000001
 10
164.20785
 20
20.39413125
  0
LWPOLYLINE
  5
1CA
330
6F
100
AcDbEntity
  8
holes
100
AcDbPolyline
 90
        5
 70
     1
 43
0.0
 10
136.31585
 20
5.130131249999999
 10
150.31485
 20
5.130131249999999
 10
150.31485
 20
19.13113125
 10
136.31585
 20
19.13113125
 10
136.31585
 20
5.130131249999999
  0
LWPOLYLINE
  5
1D1
330
6F
100
AcDbEntity
  8
holes
100
AcDbPolyline
 90
       19
 70
     1
 43
0.0
 10
63.91485
 20
16.53713125
 10
66.25865000000001
 20
16.12313125
 10
66.25865000000001
 20
16.12213125
 10
119.91285
 20
6.66113125
 10
122.34185
 20
20.44913125
 10
119.41385
 20
20.96513125
 10
119.58185
 20
21.92013125
 10
113.98685
 20
22.90713125000001
 10
113.81885
 20
21.95213125
 10
98.30785
 20
24.68813125
 10
98.47585
 20
25.64213125
 10
96.14425
 20
26.05313125
 10
96.14425
 20
26.05513125
 10
90.54954999999999
 20
27.04013125
 10
90.37985
 20
26.08513125
 10
80.13275
 20
27.89113125
 10
80.38075
 20
29.29813125
 10
66.59345
 20
31.72913125
 10
63.91485
 20
16.53713125
  0
LWPOLYLINE
  5
1E6
330
6F
100
AcDbEntity
  8
holes
100
AcDbPolyline
 90
        5
 70
     1
 43
0.0
 10
225.51185
 20
29.26913125
 10
227.94285
 20
15.48213125
 10
241.72985
 20
17.91313125
 10
239.29885
 20
31.70013125
 10
225.51185
 20
29.26913125
  0
LWPOLYLINE
  5
1ED
330
6F
100
AcDbEntity
  8
holes
100
AcDbPolyline
 90
        5
 70
     1
 43
0.0
 10
266.80885
 20
15.60913125
 10
280.80785
 20
15.60913125
 10
280.80785
 20
29.60813125000001
 10
266.80885
 20
29.60813125000001
 10
266.80885
 20
15.60913125
  0
LWPOLYLINE
  5
1F4
330
6F
100
AcDbEntity
  8
holes
100
AcDbPolyline
 90
        5
 70
     1
 43
0.0
 10
247.75885
 20
15.60913125
 10
261.75785
 20
15.60913125
 10
261.75785
 20
29.60813125000001
 10
247.75885
 20
29.60813125000001
 10
247.75885
 20
15.60913125
  0
LWPOLYLINE
  5
1FB
330
6F
100
AcDbEntity
  8
holes
100
AcDbPolyline
 90
        5
 70
     1
 43
0.0
 10
24.87345
 20
15.60913125
 10
38.87295
 20
15.60913125
 10
38.87295
 20
29.60813125000001
 10
24.87345
 20
29.60813125000001
 10
24.87345
 20
15.60913125
  0
LWPOLYLINE
  5
202
330
6F
100
AcDbEntity
  8
holes
100
AcDbPolyline
 90
        5
 70
     1
 43
0.0
 10
195.83385
 20
87.87113125000001
 10
198.26485
 20
74.08313125000002
 10
212.05285
 20
76.51613125
 10
209.62185
 20
90.30113124999999
 10
195.83385
 20
87.87113125000001
  0
LWPOLYLINE
  5
209
330
6F
100
AcDbEntity
  8
holes
100
AcDbPolyline
 90
        5
 70
     1
 43
0.0
 10
51.43775
 20
55.48913125
 10
65.22645
 20
53.05713125000001
 10
67.65744999999999
 20
66.84413125
 10
53.86875000000001
 20
69.27513125
 10
51.43775
 20
55.48913125
  0
LWPOLYLINE
  5
210
330
6F
100
AcDbEntity
  8
holes
100
AcDbPolyline
 90
        5
 70
     1
 43
0.0
 10
89.28974999999999
 20
50.74913125000001
 10
103.07885
 20
48.31813125
 10
105.50985
 20
62.10513125
 10
91.72074999999999
 20
64.53613125
 10
89.28974999999999
 20
50.74913125000001
  0
LWPOLYLINE
  5
217
330
6F
100
AcDbEntity
  8
holes
100
AcDbPolyline
 90
        5
 70
     1
 43
0.0
 10
181.04385
 20
62.05013125
 10
183.47485
 20
48.26313125
 10
197.26185
 20
50.69413125000001
 10
194.82985
 20
64.48313125
 10
181.04385
 20
62.05013125
  0
LWPOLYLINE
  5
21E
330
6F
100
AcDbEntity
  8
holes
100
AcDbPolyline
 90
        5
 70
     1
 43
0.0
 10
108.05185
 20
47.44013125
 10
121.83685
 20
45.00913125
 10
124.26985
 20
58.79713125
 10
110.48285
 20
61.22813125
 10
108.05185
 20
47.44013125
  0
LWPOLYLINE
  5
225
330
6F
100
AcDbEntity
  8
holes
100
AcDbPolyline
 90
        5
 70
     1
 43
0.0
 10
162.28185
 20
58.74313125000001
 10
164.71285
 20
44.95413125
 10
178.49985
 20
47.38513124999999
 10
176.06885
 20
61.17413125
 10
162.28185
 20
58.74313125000001
  0
LWPOLYLINE
  5
22C
330
6F
100
AcDbEntity
  8
holes
100
AcDbPolyline
 90
        5
 70
     1
 43
0.0
 10
222.20285
 20
48.03013124999999
 10
224.63385
 20
34.24313125000001
 10
238.42085
 20
36.67413125
 10
235.98985
 20
50.46113125
 10
222.20285
 20
48.03013124999999
  0
LWPOLYLINE
  5
233
330
6F
100
AcDbEntity
  8
holes
100
AcDbPolyline
 90
        5
 70
     1
 43
0.0
 10
35.35075000000001
 20
72.75913125000002
 10
49.35005
 20
72.75913125000002
 10
49.35005
 20
86.75813125000001
 10
35.35075000000001
 20
86.75813125000001
 10
35.35075000000001
 20
72.75913125000002
  0
LWPOLYLINE
  5
23A
330
6F
100
AcDbEntity
  8
holes
100
AcDbPolyline
 90
        5
 70
     1
 43
0.0
 10
237.27985
 20
72.75913125000002
 10
251.28085
 20
72.75913125000002
 10
251.28085
 20
86.75813125000001
 10
237.27985
 20
86.75813125000001
 10
237.27985
 20
72.75913125000002
  0
LWPOLYLINE
  5
241
330
6F
100
AcDbEntity
  8
holes
100
AcDbPolyline
 90
        5
 70
     1
 43
0.0
 10
215.58685
 20
85.55113125
 10
218.01785
 20
71.76413125
 10
231.80485
 20
74.19513125
 10
229.37385
 20
87.98213125000001
 10
215.58685
 20
85.55113125
  0
LWPOLYLINE
  5
248
330
6F
100
AcDbEntity
  8
holes
100
AcDbPolyline
 90
        5
 70
     1
 43
0.0
 10
92.59845
 20
69.50813125
 10
106.38585
 20
67.07713125000001
 10
108.81685
 20
80.86613125000003
 10
95.02945
 20
83.29713125000001
 10
92.59845
 20
69.50813125
  0
LWPOLYLINE
  5
24F
330
6F
100
AcDbEntity
  8
holes
100
AcDbPolyline
 90
        5
 70
     1
 43
0.0
 10
71.19085
 20
57.80913125
 10
84.97955000000001
 20
55.37813125
 10
87.41015
 20
69.16613125000001
 10
73.62295
 20
71.59613124999999
 10
71.19085
 20
57.80913125
  0
LWPOLYLINE
  5
256
330
6F
100
AcDbEntity
  8
holes
100
AcDbPolyline
 90
        5
 70
     1
 43
0.0
 10
199.14285
 20
69.11113124999999
 10
201.57385
 20
55.32313125
 10
215.35985
 20
57.75513125000001
 10
212.92885
 20
71.54213125
 10
199.14285
 20
69.11113124999999
  0
LWPOLYLINE
  5
25D
330
6F
100
AcDbEntity
  8
holes
100
AcDbPolyline
 90
        5
 70
     1
 43
0.0
 10
260.14085
 20
53.70913125000001
 10
274.13985
 20
53.70913125000001
 10
274.13985
 20
67.70813125
 10
260.14085
 20
67.70813125
 10
260.14085
 20
53.70913125000001
  0
LWPOLYLINE
  5
264
330
6F
100
AcDbEntity
  8
holes
100
AcDbPolyline
 90
        5
 70
     1
 43
0.0
 10
184.35085
 20
43.28913124999999
 10
186.78185
 20
29.50213125
 10
200.56885
 20
31.93313125
 10
198.13785
 20
45.72013125
 10
184.35085
 20
43.28913124999999
  0
LWPOLYLINE
  5
26B
330
6F
100
AcDbEntity
  8
holes
100
AcDbPolyline
 90
        5
 70
     1
 43
0.0
 10
165.58985
 20
39.98213125
 10
168.02085
 20
26.19513125000001
 10
181.80885
 20
28.62613125
 10
179.37785
 20
42.41313125
 10
165.58985
 20
39.98213125
  0
LWPOLYLINE
  5
272
330
6F
100
AcDbEntity
  8
holes
100
AcDbPolyline
 90
        5
 70
     1
 43
0.0
 10
74.49925
 20
76.56913124999999
 10
88.28685
 20
74.13813125
 10
90.71884999999999
 20
87.92613125
 10
76.93025
 20
90.35613125000001
 10
74.49925
 20
76.56913124999999
  0
LWPOLYLINE
  5
279
330
6F
100
AcDbEntity
  8
holes
100
AcDbPolyline
 90
        5
 70
     1
 43
0.0
 10
12.49045
 20
53.70913125000001
 10
26.48995
 20
53.70913125000001
 10
26.48995
 20
67.70813125
 10
12.49045
 20
67.70813125
 10
12.49045
 20
53.70913125000001
  0
LWPOLYLINE
  5
280
330
6F
100
AcDbEntity
  8
holes
100
AcDbPolyline
 90
        5
 70
     1
 43
0.0
 10
31.54045
 20
53.70913125000001
 10
45.54005
 20
53.70913125000001
 10
45.54005
 20
67.70813125
 10
31.54045
 20
67.70813125
 10
31.54045
 20
53.70913125000001
  0
LWPOLYLINE
  5
287
330
6F
100
AcDbEntity
  8
holes
100
AcDbPolyline
 90
        5
 70
     1
 43
0.0
 10
241.09085
 20
53.70913125000001
 10
255.08985
 20
53.70913125000001
 10
255.08985
 20
67.70813125
 10
241.09085
 20
67.70813125
 10
241.09085
 20
53.70913125000001
  0
LWPOLYLINE
  5
28E
330
6F
100
AcDbEntity
  8
holes
100
AcDbPolyline
 90
        5
 70
     1
 43
0.0
 10
263.95085
 20
34.65913125
 10
277.94985
 20
34.65913125
 10
277.94985
 20
48.65813124999999
 10
263.95085
 20
48.65813124999999
 10
263.95085
 20
34.65913125
  0
LWPOLYLINE
  5
295
330
6F
100
AcDbEntity
  8
holes
100
AcDbPolyline
 90
        5
 70
     1
 43
0.0
 10
48.13045
 20
36.72913125
 10
61.91775000000001
 20
34.29613125
 10
64.34875000000001
 20
48.08413125000001
 10
50.56145
 20
50.51513125
 10
48.13045
 20
36.72913125
  0
LWPOLYLINE
  5
29C
330
6F
100
AcDbEntity
  8
holes
100
AcDbPolyline
 90
        5
 70
     1
 43
0.0
 10
44.82175
 20
17.96813125
 10
58.61045
 20
15.53613125
 10
61.04145000000001
 20
29.32313125000001
 10
47.25274999999999
 20
31.75513125
 10
44.82175
 20
17.96813125
  0
LWPOLYLINE
  5
2A3
330
6F
100
AcDbEntity
  8
holes
100
AcDbPolyline
 90
        5
 70
     1
 43
0.0
 10
16.30065
 20
72.75913125000002
 10
30.30015
 20
72.75913125000002
 10
30.30015
 20
86.75813125000001
 10
16.30065
 20
86.75813125000001
 10
16.30065
 20
72.75913125000002
  0
LWPOLYLINE
  5
2AA
330
6F
100
AcDbEntity
  8
holes
100
AcDbPolyline
 90
        5
 70
     1
 43
0.0
 10
8.680150000000001
 20
34.65913125
 10
22.68105000000001
 20
34.65913125
 10
22.68105000000001
 20
48.65813124999999
 10
8.680150000000001
 20
48.65813124999999
 10
8.680150000000001
 20
34.65913125
  0
LWPOLYLINE
  5
2B1
330
6F
100
AcDbEntity
  8
holes
100
AcDbPolyline
 90
        5
 70
     1
 43
0.0
 10
27.73015
 20
34.65913125
 10
41.73115
 20
34.65913125
 10
41.73115
 20
48.65813124999999
 10
27.73015
 20
48.65813124999999
 10
27.73015
 20
34.65913125
  0
LWPOLYLINE
  5
2B8
330
6F
100
AcDbEntity
  8
holes
100
AcDbPolyline
 90
        5
 70
     1
 43
0.0
 10
5.822109375
 20
15.60913125
 10
19.82295
 20
15.60913125
 10
19.82295
 20
29.60813125000001
 10
5.822109375
 20
29.60813125000001
 10
5.822109375
 20
15.60913125
  0
LWPOLYLINE
  5
2BF
330
6F
100
AcDbEntity
  8
holes
100
AcDbPolyline
 90
        6
 70
     1
 43
0.0
 10
137.3156
 20
30.37378228737839
 10
149.3156
 20
30.37378228737839
 10
149.3156
 20
31.37378228737839
 10
149.317359375
 20
33.36317291237839
 10
137.3156
 20
33.37378228737839
 10
137.3156
 20
30.37378228737839
  0
LWPOLYLINE
  5
2C7
330
6F
100
AcDbEntity
  8
holes
100
AcDbPolyline
 90
       73
 70
     1
 43
0.0
 10
22.96353125000001
 20
95.86514687499999
 10
22.96353125000001
 20
95.952471875
 10
22.955921875
 20
96.039459375
 10
22.94075625
 20
96.12545625
 10
22.91815625000001
 20
96.209803125
 10
22.888290625
 20
96.29185624999999
 10
22.8513875
 20
96.37099687500001
 10
22.807725
 20
96.44662187500001
 10
22.757640625
 20
96.51815
 10
22.7015125
 20
96.58504374999999
 10
22.63976562500001
 20
96.64679062499999
 10
22.572871875
 20
96.70291875
 10
22.50134375
 20
96.753003125
 10
22.42571875
 20
96.79666562500001
 10
22.346578125
 20
96.83356875000001
 10
22.26452500000001
 20
96.86343437499999
 10
22.180178125
 20
96.88603437499999
 10
22.09418125
 20
96.9012
 10
22.00719375000001
 20
96.90880937500001
 10
21.91986875000001
 20
96.90880937500001
 10
21.83288125
 20
96.9012
 10
21.746884375
 20
96.88603437499999
 10
21.6625375
 20
96.86343437499999
 10
21.580484375
 20
96.83356875000001
 10
21.50134375
 20
96.79666562500001
 10
21.42571875
 20
96.753003125
 10
21.354190625
 20
96.70291875
 10
21.28729687500001
 20
96.64679062499999
 10
21.22555
 20
96.58504374999999
 10
21.169421875
 20
96.51815
 10
21.1193375
 20
96.44662187500001
 10
21.075675
 20
96.37099687500001
 10
21.038771875
 20
96.29185624999999
 10
21.00890625000001
 20
96.209803125
 10
20.98630625
 20
96.12545625
 10
20.971140625
 20
96.039459375
 10
20.96353125000001
 20
95.952471875
 10
20.96353125000001
 20
95.86514687499999
 10
20.971140625
 20
95.778159375
 10
20.98630625
 20
95.6921625
 10
21.00890625000001
 20
95.607815625
 10
21.038771875
 20
95.52576249999999
 10
21.075675
 20
95.446621875
 10
21.1193375
 20
95.37099687500001
 10
21.169421875
 20
95.29946875
 10
21.22555
 20
95.23257499999999
 10
21.28729687500001
 20
95.17082812499999
 10
21.354190625
 20
95.1147
 10
21.42571875
 20
95.064615625
 10
21.50134375
 20
95.02095312500001
 10
21.580484375
 20
94.98404999999999
 10
21.6625375
 20
94.95418437499999
 10
21.746884375
 20
94.93158437499999
 10
21.83288125
 20
94.91641875
 10
21.91986875000001
 20
94.908809375
 10
22.00719375000001
 20
94.908809375
 10
22.09418125
 20
94.91641875
 10
22.180178125
 20
94.93158437499999
 10
22.26452500000001
 20
94.95418437499999
 10
22.346578125
 20
94.98404999999999
 10
22.42571875
 20
95.02095312500001
 10
22.50134375
 20
95.064615625
 10
22.572871875
 20
95.1147
 10
22.63976562500001
 20
95.17082812499999
 10
22.7015125
 20
95.23257499999999
 10
22.757640625
 20
95.29946875
 10
22.807725
 20
95.37099687500001
 10
22.8513875
 20
95.446621875
 10
22.888290625
 20
95.52576249999999
 10
22.91815625000001
 20
95.607815625
 10
22.94075625
 20
95.6921625
 10
22.955921875
 20
95.778159375
 10
22.96353125000001
 20
95.86514687499999
  0
LWPOLYLINE
  5
312
330
6F
100
AcDbEntity
  8
holes
100
AcDbPolyline
 90
       73
 70
     1
 43
0.0
 10
130.58678125
 20
85.46952812500002
 10
130.58678125
 20
85.55685312500001
 10
130.579171875
 20
85.64384062500002
 10
130.56400625
 20
85.7298375
 10
130.54140625
 20
85.81418437500003
 10
130.511540625
 20
85.89623749999999
 10
130.4746375
 20
85.975378125
 10
130.430975
 20
86.05100312500002
 10
130.380890625
 20
86.12253125000002
 10
130.3247625
 20
86.18942500000001
 10
130.263015625
 20
86.251171875
 10
130.196121875
 20
86.30729999999999
 10
130.12459375
 20
86.35738437500002
 10
130.04896875
 20
86.401046875
 10
129.969828125
 20
86.43795
 10
129.887775
 20
86.46781562500001
 10
129.803428125
 20
86.490415625
 10
129.71743125
 20
86.50558125000001
 10
129.63044375
 20
86.51319062500002
 10
129.54311875
 20
86.51319062500002
 10
129.45613125
 20
86.50558125000001
 10
129.370134375
 20
86.490415625
 10
129.2857875
 20
86.46781562500001
 10
129.203734375
 20
86.43795
 10
129.12459375
 20
86.401046875
 10
129.04896875
 20
86.35738437500002
 10
128.977440625
 20
86.30729999999999
 10
128.910546875
 20
86.251171875
 10
128.8488
 20
86.18942500000001
 10
128.792671875
 20
86.12253125000002
 10
128.7425875
 20
86.05100312500002
 10
128.698925
 20
85.975378125
 10
128.662021875
 20
85.89623749999999
 10
128.63215625
 20
85.81418437500003
 10
128.60955625
 20
85.7298375
 10
128.594390625
 20
85.64384062500002
 10
128.58678125
 20
85.55685312500001
 10
128.58678125
 20
85.46952812500002
 10
128.594390625
 20
85.382540625
 10
128.60955625
 20
85.29654374999999
 10
128.63215625
 20
85.212196875
 10
128.662021875
 20
85.13014375
 10
128.698925
 20
85.05100312500003
 10
128.7425875
 20
84.975378125
 10
128.792671875
 20
84.90385000000001
 10
128.8488
 20
84.83695625000001
 10
128.910546875
 20
84.77520937500001
 10
128.977440625
 20
84.71908125
 10
129.04896875
 20
84.66899687500001
 10
129.12459375
 20
84.62533437500002
 10
129.203734375
 20
84.58843124999999
 10
129.2857875
 20
84.55856562500001
 10
129.370134375
 20
84.53596562500001
 10
129.45613125
 20
84.52080000000002
 10
129.54311875
 20
84.51319062500003
 10
129.63044375
 20
84.51319062500003
 10
129.71743125
 20
84.52080000000002
 10
129.803428125
 20
84.53596562500001
 10
129.887775
 20
84.55856562500001
 10
129.969828125
 20
84.58843124999999
 10
130.04896875
 20
84.62533437500002
 10
130.12459375
 20
84.66899687500001
 10
130.196121875
 20
84.71908125
 10
130.263015625
 20
84.77520937500001
 10
130.3247625
 20
84.83695625000001
 10
130.380890625
 20
84.90385000000001
 10
130.430975
 20
84.975378125
 10
130.4746375
 20
85.05100312500003
 10
130.511540625
 20
85.13014375
 10
130.54140625
 20
85.212196875
 10
130.56400625
 20
85.29654374999999
 10
130.579171875
 20
85.382540625
 10
130.58678125
 20
85.46952812500002
  0
LWPOLYLINE
  5
35D
330
6F
100
AcDbEntity
  8
holes
100
AcDbPolyline
 90
       73
 70
     1
 43
0.0
 10
158.04398125
 20
85.46952812500002
 10
158.04398125
 20
85.55685312500001
 10
158.036371875
 20
85.64384062500002
 10
158.02120625
 20
85.7298375
 10
157.99860625
 20
85.81418437500003
 10
157.968740625
 20
85.89623749999999
 10
157.9318375
 20
85.975378125
 10
157.888175
 20
86.05100312500002
 10
157.838090625
 20
86.12253125000002
 10
157.7819625
 20
86.18942500000001
 10
157.720215625
 20
86.251171875
 10
157.653321875
 20
86.30729999999999
 10
157.58179375
 20
86.35738437500002
 10
157.50616875
 20
86.401046875
 10
157.427028125
 20
86.43795
 10
157.344975
 20
86.46781562500001
 10
157.260628125
 20
86.490415625
 10
157.17463125
 20
86.50558125000001
 10
157.08764375
 20
86.51319062500002
 10
157.00031875
 20
86.51319062500002
 10
156.91333125
 20
86.50558125000001
 10
156.827334375
 20
86.490415625
 10
156.7429875
 20
86.46781562500001
 10
156.660934375
 20
86.43795
 10
156.58179375
 20
86.401046875
 10
156.50616875
 20
86.35738437500002
 10
156.434640625
 20
86.30729999999999
 10
156.367746875
 20
86.251171875
 10
156.306
 20
86.18942500000001
 10
156.249871875
 20
86.12253125000002
 10
156.1997875
 20
86.05100312500002
 10
156.156125
 20
85.975378125
 10
156.119221875
 20
85.89623749999999
 10
156.08935625
 20
85.81418437500003
 10
156.06675625
 20
85.7298375
 10
156.051590625
 20
85.64384062500002
 10
156.04398125
 20
85.55685312500001
 10
156.04398125
 20
85.46952812500002
 10
156.051590625
 20
85.382540625
 10
156.06675625
 20
85.29654374999999
 10
156.08935625
 20
85.212196875
 10
156.119221875
 20
85.13014375
 10
156.156125
 20
85.05100312500003
 10
156.1997875
 20
84.975378125
 10
156.249871875
 20
84.90385000000001
 10
156.306
 20
84.83695625000001
 10
156.367746875
 20
84.77520937500001
 10
156.434640625
 20
84.71908125
 10
156.50616875
 20
84.66899687500001
 10
156.58179375
 20
84.62533437500002
 10
156.660934375
 20
84.58843124999999
 10
156.7429875
 20
84.55856562500001
 10
156.827334375
 20
84.53596562500001
 10
156.91333125
 20
84.52080000000002
 10
157.00031875
 20
84.51319062500003
 10
157.08764375
 20
84.51319062500003
 10
157.17463125
 20
84.52080000000002
 10
157.260628125
 20
84.53596562500001
 10
157.344975
 20
84.55856562500001
 10
157.427028125
 20
84.58843124999999
 10
157.50616875
 20
84.62533437500002
 10
157.58179375
 20
84.66899687500001
 10
157.653321875
 20
84.71908125
 10
157.720215625
 20
84.77520937500001
 10
157.7819625
 20
84.83695625000001
 10
157.838090625
 20
84.90385000000001
 10
157.888175
 20
84.975378125
 10
157.9318375
 20
85.05100312500003
 10
157.968740625
 20
85.13014375
 10
157.99860625
 20
85.212196875
 10
158.02120625
 20
85.29654374999999
 10
158.036371875
 20
85.382540625
 10
158.04398125
 20
85.46952812500002
  0
LWPOLYLINE
  5
3A8
330
6F
100
AcDbEntity
  8
holes
100
AcDbPolyline
 90
       73
 70
     1
 43
0.0
 10
265.761409375
 20
95.836528125
 10
265.761409375
 20
95.92385312499999
 10
265.7538
 20
96.010840625
 10
265.738634375
 20
96.09683750000002
 10
265.716034375
 20
96.18118437500001
 10
265.6861687500001
 20
96.2632375
 10
265.649265625
 20
96.342378125
 10
265.605603125
 20
96.418003125
 10
265.55551875
 20
96.48953125
 10
265.499390625
 20
96.556425
 10
265.43764375
 20
96.618171875
 10
265.37075
 20
96.67430000000001
 10
265.299221875
 20
96.724384375
 10
265.223596875
 20
96.768046875
 10
265.14445625
 20
96.80495
 10
265.062403125
 20
96.834815625
 10
264.97805625
 20
96.857415625
 10
264.892059375
 20
96.87258124999999
 10
264.805071875
 20
96.880190625
 10
264.717746875
 20
96.880190625
 10
264.630759375
 20
96.87258124999999
 10
264.5447625
 20
96.857415625
 10
264.460415625
 20
96.834815625
 10
264.3783625000001
 20
96.80495
 10
264.299221875
 20
96.768046875
 10
264.223596875
 20
96.724384375
 10
264.15206875
 20
96.67430000000001
 10
264.085175
 20
96.618171875
 10
264.023428125
 20
96.556425
 10
263.9673
 20
96.48953125
 10
263.917215625
 20
96.418003125
 10
263.873553125
 20
96.342378125
 10
263.83665
 20
96.2632375
 10
263.806784375
 20
96.18118437500001
 10
263.784184375
 20
96.09683750000002
 10
263.76901875
 20
96.010840625
 10
263.761409375
 20
95.92385312499999
 10
263.761409375
 20
95.836528125
 10
263.76901875
 20
95.74954062499999
 10
263.784184375
 20
95.66354375000001
 10
263.806784375
 20
95.579196875
 10
263.83665
 20
95.49714375
 10
263.873553125
 20
95.41800312499999
 10
263.917215625
 20
95.342378125
 10
263.9673
 20
95.27084999999999
 10
264.023428125
 20
95.20395625
 10
264.085175
 20
95.14220937499999
 10
264.15206875
 20
95.08608125
 10
264.223596875
 20
95.03599687499999
 10
264.299221875
 20
94.992334375
 10
264.3783625000001
 20
94.95543125000001
 10
264.460415625
 20
94.925565625
 10
264.5447625
 20
94.90296562499999
 10
264.630759375
 20
94.8878
 10
264.717746875
 20
94.88019062499999
 10
264.805071875
 20
94.88019062499999
 10
264.892059375
 20
94.8878
 10
264.97805625
 20
94.90296562499999
 10
265.062403125
 20
94.925565625
 10
265.14445625
 20
94.95543125000001
 10
265.223596875
 20
94.992334375
 10
265.299221875
 20
95.03599687499999
 10
265.37075
 20
95.08608125
 10
265.43764375
 20
95.14220937499999
 10
265.499390625
 20
95.20395625
 10
265.55551875
 20
95.27084999999999
 10
265.605603125
 20
95.342378125
 10
265.649265625
 20
95.41800312499999
 10
265.6861687500001
 20
95.49714375
 10
265.716034375
 20
95.579196875
 10
265.738634375
 20
95.66354375000001
 10
265.7538
 20
95.74954062499999
 10
265.761409375
 20
95.836528125
  0
LWPOLYLINE
  5
3F3
330
6F
100
AcDbEntity
  8
holes
100
AcDbPolyline
 90
       73
 70
     1
 43
0.0
 10
280.96943125
 20
8.435337500000001
 10
280.96943125
 20
8.5226625
 10
280.961821875
 20
8.60965
 10
280.94665625
 20
8.695646874999999
 10
280.92405625
 20
8.77999375
 10
280.894190625
 20
8.862046875
 10
280.8572875
 20
8.941187499999999
 10
280.813625
 20
9.0168125
 10
280.763540625
 20
9.088340625
 10
280.7074125
 20
9.155234374999999
 10
280.645665625
 20
9.216981249999999
 10
280.578771875
 20
9.273109375
 10
280.50724375
 20
9.323193749999999
 10
280.43161875
 20
9.366856249999999
 10
280.352478125
 20
9.403759374999999
 10
280.270425
 20
9.433624999999999
 10
280.186078125
 20
9.456224999999999
 10
280.10008125
 20
9.471390624999999
 10
280.01309375
 20
9.478999999999999
 10
279.92576875
 20
9.478999999999999
 10
279.83878125
 20
9.471390624999999
 10
279.752784375
 20
9.456224999999999
 10
279.6684375
 20
9.433624999999999
 10
279.586384375
 20
9.403759374999999
 10
279.50724375
 20
9.366856249999999
 10
279.4316187500001
 20
9.323193749999999
 10
279.360090625
 20
9.273109375
 10
279.293196875
 20
9.216981249999999
 10
279.23145
 20
9.155234374999999
 10
279.175321875
 20
9.088340625
 10
279.1252375
 20
9.0168125
 10
279.081575
 20
8.941187499999999
 10
279.044671875
 20
8.862046875
 10
279.01480625
 20
8.77999375
 10
278.99220625
 20
8.695646874999999
 10
278.977040625
 20
8.60965
 10
278.96943125
 20
8.5226625
 10
278.96943125
 20
8.435337500000001
 10
278.977040625
 20
8.348349999999999
 10
278.99220625
 20
8.262353125
 10
279.01480625
 20
8.178006250000001
 10
279.044671875
 20
8.095953125000001
 10
279.081575
 20
8.0168125
 10
279.1252375
 20
7.941187500000001
 10
279.175321875
 20
7.869659375
 10
279.23145
 20
7.802765625
 10
279.293196875
 20
7.74101875
 10
279.360090625
 20
7.684890625
 10
279.4316187500001
 20
7.634806249999999
 10
279.50724375
 20
7.591143749999999
 10
279.586384375
 20
7.554240625
 10
279.6684375
 20
7.524375
 10
279.752784375
 20
7.501775
 10
279.83878125
 20
7.486609374999999
 10
279.92576875
 20
7.479
 10
280.01309375
 20
7.479
 10
280.10008125
 20
7.486609374999999
 10
280.186078125
 20
7.501775
 10
280.270425
 20
7.524375
 10
280.352478125
 20
7.554240625
 10
280.43161875
 20
7.591143749999999
 10
280.50724375
 20
7.634806249999999
 10
280.578771875
 20
7.684890625
 10
280.645665625
 20
7.74101875
 10
280.7074125
 20
7.802765625
 10
280.763540625
 20
7.869659375
 10
280.813625
 20
7.941187500000001
 10
280.8572875
 20
8.0168125
 10
280.894190625
 20
8.095953125000001
 10
280.92405625
 20
8.178006250000001
 10
280.94665625
 20
8.262353125
 10
280.961821875
 20
8.348349999999999
 10
280.96943125
 20
8.435337500000001
  0
LWPOLYLINE
  5
43E
330
6F
100
AcDbEntity
  8
holes
100
AcDbPolyline
 90
       73
 70
     1
 43
0.0
 10
167.97643125
 20
-0.6238937500000001
 10
167.97643125
 20
-0.53656875
 10
167.968821875
 20
-0.44958125
 10
167.95365625
 20
-0.363584375
 10
167.93105625
 20
-0.2792375
 10
167.901190625
 20
-0.197184375
 10
167.8642875
 20
-0.11804375
 10
167.820625
 20
-0.04241875
 10
167.770540625
 20
0.029109375
 10
167.7144125
 20
0.096003125
 10
167.652665625
 20
0.15775
 10
167.585771875
 20
0.213878125
 10
167.51424375
 20
0.2639625
 10
167.43861875
 20
0.307625
 10
167.359478125
 20
0.344528125
 10
167.277425
 20
0.37439375
 10
167.193078125
 20
0.39699375
 10
167.10708125
 20
0.412159375
 10
167.02009375
 20
0.4197687500000001
 10
166.93276875
 20
0.4197687500000001
 10
166.84578125
 20
0.412159375
 10
166.759784375
 20
0.39699375
 10
166.6754375
 20
0.37439375
 10
166.593384375
 20
0.344528125
 10
166.51424375
 20
0.307625
 10
166.43861875
 20
0.2639625
 10
166.367090625
 20
0.213878125
 10
166.300196875
 20
0.15775
 10
166.23845
 20
0.096003125
 10
166.182321875
 20
0.029109375
 10
166.1322375
 20
-0.04241875
 10
166.088575
 20
-0.11804375
 10
166.051671875
 20
-0.197184375
 10
166.02180625
 20
-0.2792375
 10
165.99920625
 20
-0.363584375
 10
165.984040625
 20
-0.44958125
 10
165.97643125
 20
-0.53656875
 10
165.97643125
 20
-0.6238937500000001
 10
165.984040625
 20
-0.71088125
 10
165.99920625
 20
-0.7968781250000001
 10
166.02180625
 20
-0.881225
 10
166.051671875
 20
-0.963278125
 10
166.088575
 20
-1.042418749999999
 10
166.1322375
 20
-1.11804375
 10
166.182321875
 20
-1.189571875
 10
166.23845
 20
-1.256465624999999
 10
166.300196875
 20
-1.3182125
 10
166.367090625
 20
-1.374340625
 10
166.43861875
 20
-1.424425
 10
166.51424375
 20
-1.4680875
 10
166.593384375
 20
-1.504990625
 10
166.6754375
 20
-1.534856249999999
 10
166.759784375
 20
-1.557456249999999
 10
166.84578125
 20
-1.572621875
 10
166.93276875
 20
-1.580231249999999
 10
167.02009375
 20
-1.580231249999999
 10
167.10708125
 20
-1.572621875
 10
167.193078125
 20
-1.557456249999999
 10
167.277425
 20
-1.534856249999999
 10
167.359478125
 20
-1.504990625
 10
167.43861875
 20
-1.4680875
 10
167.51424375
 20
-1.424425
 10
167.585771875
 20
-1.374340625
 10
167.652665625
 20
-1.3182125
 10
167.7144125
 20
-1.256465624999999
 10
167.770540625
 20
-1.189571875
 10
167.820625
 20
-1.11804375
 10
167.8642875
 20
-1.042418749999999
 10
167.901190625
 20
-0.963278125
 10
167.93105625
 20
-0.881225
 10
167.95365625
 20
-0.7968781250000001
 10
167.968821875
 20
-0.71088125
 10
167.97643125
 20
-0.6238937500000001
  0
LWPOLYLINE
  5
489
330
6F
100
AcDbEntity
  8
holes
100
AcDbPolyline
 90
       73
 70
     1
 43
0.0
 10
120.98356875
 20
-0.6237125
 10
120.98356875
 20
-0.5363875000000001
 10
120.975959375
 20
-0.4494
 10
120.96079375
 20
-0.363403125
 10
120.93819375
 20
-0.27905625
 10
120.908328125
 20
-0.197003125
 10
120.871425
 20
-0.1178625
 10
120.8277625
 20
-0.0422375
 10
120.777678125
 20
0.029290625
 10
120.72155
 20
0.096184375
 10
120.659803125
 20
0.15793125
 10
120.592909375
 20
0.214059375
 10
120.52138125
 20
0.26414375
 10
120.44575625
 20
0.30780625
 10
120.366615625
 20
0.344709375
 10
120.2845625
 20
0.374575
 10
120.200215625
 20
0.397175
 10
120.11421875
 20
0.4123406250000001
 10
120.02723125
 20
0.4199500000000002
 10
119.93990625
 20
0.4199500000000002
 10
119.85291875
 20
0.4123406250000001
 10
119.766921875
 20
0.397175
 10
119.682575
 20
0.374575
 10
119.600521875
 20
0.344709375
 10
119.52138125
 20
0.30780625
 10
119.44575625
 20
0.26414375
 10
119.374228125
 20
0.214059375
 10
119.307334375
 20
0.15793125
 10
119.2455875
 20
0.096184375
 10
119.189459375
 20
0.029290625
 10
119.139375
 20
-0.0422375
 10
119.0957125
 20
-0.1178625
 10
119.058809375
 20
-0.197003125
 10
119.02894375
 20
-0.27905625
 10
119.00634375
 20
-0.363403125
 10
118.991178125
 20
-0.4494
 10
118.98356875
 20
-0.5363875000000001
 10
118.98356875
 20
-0.6237125
 10
118.991178125
 20
-0.7107000000000001
 10
119.00634375
 20
-0.7966968750000002
 10
119.02894375
 20
-0.88104375
 10
119.058809375
 20
-0.9630968749999999
 10
119.0957125
 20
-1.042237499999999
 10
119.139375
 20
-1.117862499999999
 10
119.189459375
 20
-1.189390624999999
 10
119.2455875
 20
-1.256284374999999
 10
119.307334375
 20
-1.318031249999999
 10
119.374228125
 20
-1.374159375
 10
119.44575625
 20
-1.42424375
 10
119.52138125
 20
-1.467906249999999
 10
119.600521875
 20
-1.504809374999999
 10
119.682575
 20
-1.534675
 10
119.766921875
 20
-1.557274999999999
 10
119.85291875
 20
-1.572440625
 10
119.93990625
 20
-1.58005
 10
120.02723125
 20
-1.58005
 10
120.11421875
 20
-1.572440625
 10
120.200215625
 20
-1.557274999999999
 10
120.2845625
 20
-1.534675
 10
120.366615625
 20
-1.504809374999999
 10
120.44575625
 20
-1.467906249999999
 10
120.52138125
 20
-1.42424375
 10
120.592909375
 20
-1.374159375
 10
120.659803125
 20
-1.318031249999999
 10
120.72155
 20
-1.256284374999999
 10
120.777678125
 20
-1.189390624999999
 10
120.8277625
 20
-1.117862499999999
 10
120.871425
 20
-1.042237499999999
 10
120.908328125
 20
-0.9630968749999999
 10
120.93819375
 20
-0.88104375
 10
120.96079375
 20
-0.7966968750000002
 10
120.975959375
 20
-0.7107000000000001
 10
120.98356875
 20
-0.6237125
  0
LWPOLYLINE
  5
4D4
330
6F
100
AcDbEntity
  8
holes
100
AcDbPolyline
 90
       73
 70
     1
 43
0.0
 10
7.666549999999999
 20
8.435337500000001
 10
7.666549999999999
 20
8.5226625
 10
7.658940624999999
 20
8.60965
 10
7.643775000000001
 20
8.695646874999999
 10
7.621175
 20
8.77999375
 10
7.591309375000001
 20
8.862046875
 10
7.55440625
 20
8.941187499999999
 10
7.510743749999999
 20
9.0168125
 10
7.460659374999999
 20
9.088340625
 10
7.404531250000001
 20
9.155234374999999
 10
7.342784374999999
 20
9.216981249999999
 10
7.275890625000001
 20
9.273109375
 10
7.2043625
 20
9.323193749999999
 10
7.128737500000001
 20
9.366856249999999
 10
7.049596875000001
 20
9.403759374999999
 10
6.967543749999999
 20
9.433624999999999
 10
6.883196875
 20
9.456224999999999
 10
6.7972
 20
9.471390624999999
 10
6.710212499999999
 20
9.478999999999999
 10
6.6228875
 20
9.478999999999999
 10
6.535900000000001
 20
9.471390624999999
 10
6.449903125
 20
9.456224999999999
 10
6.36555625
 20
9.433624999999999
 10
6.283503125
 20
9.403759374999999
 10
6.2043625
 20
9.366856249999999
 10
6.128737500000001
 20
9.323193749999999
 10
6.057209375
 20
9.273109375
 10
5.990315625
 20
9.216981249999999
 10
5.92856875
 20
9.155234374999999
 10
5.872440625
 20
9.088340625
 10
5.82235625
 20
9.0168125
 10
5.77869375
 20
8.941187499999999
 10
5.741790625
 20
8.862046875
 10
5.711924999999999
 20
8.77999375
 10
5.689325
 20
8.695646874999999
 10
5.674159375
 20
8.60965
 10
5.666549999999999
 20
8.5226625
 10
5.666549999999999
 20
8.435337500000001
 10
5.674159375
 20
8.348349999999999
 10
5.689325
 20
8.262353125
 10
5.711924999999999
 20
8.178006250000001
 10
5.741790625
 20
8.095953125000001
 10
5.77869375
 20
8.0168125
 10
5.82235625
 20
7.941187500000001
 10
5.872440625
 20
7.869659375
 10
5.92856875
 20
7.802765625
 10
5.990315625
 20
7.74101875
 10
6.057209375
 20
7.684890625
 10
6.128737500000001
 20
7.634806249999999
 10
6.2043625
 20
7.591143749999999
 10
6.283503125
 20
7.554240625
 10
6.36555625
 20
7.524375
 10
6.449903125
 20
7.501775
 10
6.535900000000001
 20
7.486609374999999
 10
6.6228875
 20
7.479
 10
6.710212499999999
 20
7.479
 10
6.7972
 20
7.486609374999999
 10
6.883196875
 20
7.501775
 10
6.967543749999999
 20
7.524375
 10
7.049596875000001
 20
7.554240625
 10
7.128737500000001
 20
7.591143749999999
 10
7.2043625
 20
7.634806249999999
 10
7.275890625000001
 20
7.684890625
 10
7.342784374999999
 20
7.74101875
 10
7.404531250000001
 20
7.802765625
 10
7.460659374999999
 20
7.869659375
 10
7.510743749999999
 20
7.941187500000001
 10
7.55440625
 20
8.0168125
 10
7.591309375000001
 20
8.095953125000001
 10
7.621175
 20
8.178006250000001
 10
7.643775000000001
 20
8.262353125
 10
7.658940624999999
 20
8.348349999999999
 10
7.666549999999999
 20
8.435337500000001
  0
ENDSEC
  0
SECTION
  2
OBJECTS
  0
DICTIONARY
  5
C
330
0
100
AcDbDictionary
281
     1
  3
ACAD_CIP_PREVIOUS_PRODUCT_INFO
350
523
  3
ACAD_COLOR
350
62
  3
ACAD_DETAILVIEWSTYLE
350
69
  3
ACAD_GROUP
350
D
  3
ACAD_LAYOUT
350
61
  3
ACAD_MATERIAL
350
10
  3
ACAD_MLEADERSTYLE
350
65
  3
ACAD_MLINESTYLE
350
5E
  3
ACAD_PLOTSETTINGS
350
60
  3
ACAD_PLOTSTYLENAME
350
E
  3
ACAD_SCALELIST
350
42
  3
ACAD_SECTIONVIEWSTYLE
350
67
  3
ACAD_TABLESTYLE
350
63
  3
ACAD_VISUALSTYLE
350
29
  3
ACDB_RECOMPOSE_DATA
350
545
  3
AcDbVariableDictionary
350
533
  0
DICTIONARY
  5
53D
330
54
100
AcDbDictionary
280
     1
281
     1
  3
ADSK_XREC_LAYER_RECONCILED
360
53E
  0
DICTIONARY
  5
53F
330
73
100
AcDbDictionary
280
     1
281
     1
  3
ADSK_XREC_LAYER_RECONCILED
360
540
  0
DICTIONARY
  5
541
330
162
100
AcDbDictionary
280
     1
281
     1
  3
ADSK_XREC_LAYER_RECONCILED
360
542
  0
XRECORD
  5
523
102
{ACAD_REACTORS
330
C
102
}
330
C
100
AcDbXrecord
280
     1
300
ACD
300
2021
300

  0
DICTIONARY
  5
62
102
{ACAD_REACTORS
330
C
102
}
330
C
100
AcDbDictionary
281
     1
  0
DICTIONARY
  5
69
102
{ACAD_REACTORS
330
C
102
}
330
C
100
AcDbDictionary
281
     1
  3
Imperial24
350
6A
  0
DICTIONARY
  5
D
102
{ACAD_REACTORS
330
C
102
}
330
C
100
AcDbDictionary
281
     1
  0
DICTIONARY
  5
61
102
{ACAD_REACTORS
330
C
102
}
330
C
100
AcDbDictionary
281
     1
  3
Layout1
350
6E
  3
Model
350
72
  0
DICTIONARY
  5
10
102
{ACAD_REACTORS
330
C
102
}
330
C
100
AcDbDictionary
281
     1
  3
ByBlock
350
19
  3
ByLayer
350
11
  3
Global
350
21
  0
DICTIONARY
  5
65
102
{ACAD_REACTORS
330
C
102
}
330
C
100
AcDbDictionary
281
     1
  3
Standard
350
66
  0
DICTIONARY
  5
5E
102
{ACAD_REACTORS
330
C
102
}
330
C
100
AcDbDictionary
281
     1
  3
Standard
350
5F
  0
DICTIONARY
  5
60
102
{ACAD_REACTORS
330
C
102
}
330
C
100
AcDbDictionary
281
     1
  0
ACDBDICTIONARYWDFLT
  5
E
102
{ACAD_REACTORS
330
C
102
}
330
C
100
AcDbDictionary
281
     1
  3
Normal
350
F
100
AcDbDictionaryWithDefault
340
F
  0
DICTIONARY
  5
42
102
{ACAD_REACTORS
330
C
102
}
330
C
100
AcDbDictionary
281
     1
  3
A0
350
43
  3
A1
350
44
  3
A2
350
45
  3
A3
350
46
  3
A4
350
47
  3
A5
350
48
  3
A6
350
49
  3
A7
350
4A
  3
A8
350
4B
  3
A9
350
4C
  3
B0
350
4D
  3
B1
350
4E
  3
B2
350
4F
  3
B3
350
50
  3
B4
350
51
  3
B5
350
52
  3
B6
350
53
  0
DICTIONARY
  5
67
102
{ACAD_REACTORS
330
C
102
}
330
C
100
AcDbDictionary
281
     1
  3
Imperial24
350
68
  0
DICTIONARY
  5
63
102
{ACAD_REACTORS
330
C
102
}
330
C
100
AcDbDictionary
281
     1
  3
Standard
350
64
  0
DICTIONARY
  5
29
102
{ACAD_REACTORS
330
C
102
}
330
C
100
AcDbDictionary
281
     1
  3
2dWireframe
350
2F
  3
Basic
350
2E
  3
Brighten
350
35
  3
ColorChange
350
39
  3
Conceptual
350
32
  3
Dim
350
34
  3
EdgeColorOff
350
41
  3
Facepattern
350
38
  3
Flat
350
2A
  3
FlatWithEdges
350
2B
  3
Gouraud
350
2C
  3
GouraudWithEdges
350
2D
  3
Hidden
350
31
  3
JitterOff
350
3F
  3
Linepattern
350
37
  3
OverhangOff
350
40
  3
Realistic
350
33
  3
Shaded
350
3E
  3
Shaded with edges
350
3D
  3
Shades of Gray
350
3A
  3
Sketchy
350
3B
  3
Thicken
350
36
  3
Wireframe
350
30
  3
X-Ray
350
3C
  0
XRECORD
  5
545
102
{ACAD_REACTORS
330
C
102
}
330
C
100
AcDbXrecord
280
     1
 90
        1
330
64
  0
DICTIONARY
  5
533
102
{ACAD_REACTORS
330
C
102
}
330
C
100
AcDbDictionary
281
     1
  3
CANNOSCALE
350
539
  3
CMLEADERSTYLE
350
535
  3
CTABLESTYLE
350
534
  3
CVIEWDETAILSTYLE
350
536
  3
CVIEWSECTIONSTYLE
350
537
  3
LAYEREVAL
350
53B
  3
LAYERNOTIFY
350
53C
  3
LIGHTINGUNITS
350
53A
  3
MSLTSCALE
350
538
  0
XRECORD
  5
53E
102
{ACAD_REACTORS
330
53D
102
}
330
53D
100
AcDbXrecord
280
     1
290
     1
  0
XRECORD
  5
540
102
{ACAD_REACTORS
330
53F
102
}
330
53F
100
AcDbXrecord
280
     1
290
     1
  0
XRECORD
  5
542
102
{ACAD_REACTORS
330
541
102
}
330
541
100
AcDbXrecord
280
     1
290
     1
  0
ACDBDETAILVIEWSTYLE
  5
6A
102
{ACAD_REACTORS
330
69
102
}
330
69
100
AcDbModelDocViewStyle
 70
     0
  3
Imperial24
290
     0
300
Imperial24
 90
        0
100
AcDbDetailViewStyle
 70
     0
 71
     0
 90
        3
 71
     1
340
55
 62
   256
 40
0.24
340
0
 62
   256
 40
0.24
300

 40
0.36
280
     3
 71
     2
340
5C
 90
       25
 62
   256
 71
     3
340
55
 62
   256
 40
0.24
 90
        1
 40
0.75
 90
        1
300
%<\AcVar ViewType \f "%tc1">% %<\AcVar ViewDetailId>%\PSCALE %<\AcVar ViewScale \f "%sn">%
 71
     4
340
5C
 90
       25
 62
   256
340
5C
 90
       25
 62
   256
280
     0
  0
LAYOUT
  5
6E
102
{ACAD_REACTORS
330
61
102
}
330
61
100
AcDbPlotSettings
  1

  2
HP9203DF (HP Officejet Pro 8600)
  4

  6

 40
0.0
 41
0.0
 42
0.0
 43
0.0
 44
0.0
 45
0.0
 46
0.0
 47
0.0
 48
0.0
 49
0.0
140
0.0
141
0.0
142
1.0
143
1.0
 70
   688
 72
     0
 73
     0
 74
     5
  7

 75
    16
147
1.0
 76
     0
 77
     2
 78
   300
148
0.0
149
0.0
100
AcDbLayout
  1
Layout1
 70
     1
 71
     1
 10
0.0
 20
0.0
 11
12.0
 21
9.0
 12
0.0
 22
0.0
 32
0.0
 14
1.000000000000000E+20
 24
1.000000000000000E+20
 34
1.000000000000000E+20
 15
-1.000000000000000E+20
 25
-1.000000000000000E+20
 35
-1.000000000000000E+20
146
0.0
 13
0.0
 23
0.0
 33
0.0
 16
1.0
 26
0.0
 36
0.0
 17
0.0
 27
1.0
 37
0.0
 76
     0
330
6B
  0
LAYOUT
  5
72
102
{ACAD_REACTORS
330
61
102
}
330
61
100
AcDbPlotSettings
  1

  2
HP9203DF (HP Officejet Pro 8600)
  4

  6

 40
0.0
 41
0.0
 42
0.0
 43
0.0
 44
0.0
 45
0.0
 46
0.0
 47
0.0
 48
0.0
 49
0.0
140
0.0
141
0.0
142
1.0
143
1.0
 70
  1712
 72
     0
 73
     0
 74
     0
  7

 75
     0
147
1.0
 76
     0
 77
     2
 78
   300
148
0.0
149
0.0
100
AcDbLayout
  1
Model
 70
     1
 71
     0
 10
0.0
 20
0.0
 11
12.0
 21
9.0
 12
0.0
 22
0.0
 32
0.0
 14
0.0
 24
0.0
 34
0.0
 15
0.0
 25
0.0
 35
0.0
146
0.0
 13
0.0
 23
0.0
 33
0.0
 16
1.0
 26
0.0
 36
0.0
 17
0.0
 27
1.0
 37
0.0
 76
     0
330
6F
331
522
  0
MATERIAL
  5
19
102
{ACAD_XDICTIONARY
360
1A
102
}
102
{ACAD_REACTORS
330
10
102
}
330
10
100
AcDbMaterial
  1
ByBlock
 72
     0
 43
0.0208333333333333
 43
0.0
 43
0.0
 43
0.0
 43
0.0
 43
0.0208333333333333
 43
0.0
 43
0.0
 43
0.0
 43
0.0
 43
1.0
 43
0.0
 43
0.0
 43
0.0
 43
0.0
 43
1.0
 77
     0
 47
0.0208333333333333
 47
0.0
 47
0.0
 47
0.0
 47
0.0
 47
0.0208333333333333
 47
0.0
 47
0.0
 47
0.0
 47
0.0
 47
1.0
 47
0.0
 47
0.0
 47
0.0
 47
0.0
 47
1.0
171
     0
 49
0.0208333333333333
 49
0.0
 49
0.0
 49
0.0
 49
0.0
 49
0.0208333333333333
 49
0.0
 49
0.0
 49
0.0
 49
0.0
 49
1.0
 49
0.0
 49
0.0
 49
0.0
 49
0.0
 49
1.0
175
     0
142
0.0208333333333333
142
0.0
142
0.0
142
0.0
142
0.0
142
0.0208333333333333
142
0.0
142
0.0
142
0.0
142
0.0
142
1.0
142
0.0
142
0.0
142
0.0
142
0.0
142
1.0
179
     0
144
0.0208333333333333
144
0.0
144
0.0
144
0.0
144
0.0
144
0.0208333333333333
144
0.0
144
0.0
144
0.0
144
0.0
144
1.0
144
0.0
144
0.0
144
0.0
144
0.0
144
1.0
147
0.0208333333333333
147
0.0
147
0.0
147
0.0
147
0.0
147
0.0208333333333333
147
0.0
147
0.0
147
0.0
147
0.0
147
1.0
147
0.0
147
0.0
147
0.0
147
0.0
147
1.0
  0
MATERIAL
  5
11
102
{ACAD_XDICTIONARY
360
12
102
}
102
{ACAD_REACTORS
330
10
102
}
330
10
100
AcDbMaterial
  1
ByLayer
 72
     0
 43
0.0208333333333333
 43
0.0
 43
0.0
 43
0.0
 43
0.0
 43
0.0208333333333333
 43
0.0
 43
0.0
 43
0.0
 43
0.0
 43
1.0
 43
0.0
 43
0.0
 43
0.0
 43
0.0
 43
1.0
 77
     0
 47
0.0208333333333333
 47
0.0
 47
0.0
 47
0.0
 47
0.0
 47
0.0208333333333333
 47
0.0
 47
0.0
 47
0.0
 47
0.0
 47
1.0
 47
0.0
 47
0.0
 47
0.0
 47
0.0
 47
1.0
171
     0
 49
0.0208333333333333
 49
0.0
 49
0.0
 49
0.0
 49
0.0
 49
0.0208333333333333
 49
0.0
 49
0.0
 49
0.0
 49
0.0
 49
1.0
 49
0.0
 49
0.0
 49
0.0
 49
0.0
 49
1.0
175
     0
142
0.0208333333333333
142
0.0
142
0.0
142
0.0
142
0.0
142
0.0208333333333333
142
0.0
142
0.0
142
0.0
142
0.0
142
1.0
142
0.0
142
0.0
142
0.0
142
0.0
142
1.0
179
     0
144
0.0208333333333333
144
0.0
144
0.0
144
0.0
144
0.0
144
0.0208333333333333
144
0.0
144
0.0
144
0.0
144
0.0
144
1.0
144
0.0
144
0.0
144
0.0
144
0.0
144
1.0
147
0.0208333333333333
147
0.0
147
0.0
147
0.0
147
0.0
147
0.0208333333333333
147
0.0
147
0.0
147
0.0
147
0.0
147
1.0
147
0.0
147
0.0
147
0.0
147
0.0
147
1.0
  0
MATERIAL
  5
21
102
{ACAD_XDICTIONARY
360
22
102
}
102
{ACAD_REACTORS
330
10
102
}
330
10
100
AcDbMaterial
  1
Global
 72
     0
 43
0.0208333333333333
 43
0.0
 43
0.0
 43
0.0
 43
0.0
 43
0.0208333333333333
 43
0.0
 43
0.0
 43
0.0
 43
0.0
 43
1.0
 43
0.0
 43
0.0
 43
0.0
 43
0.0
 43
1.0
 77
     0
 47
0.0208333333333333
 47
0.0
 47
0.0
 47
0.0
 47
0.0
 47
0.0208333333333333
 47
0.0
 47
0.0
 47
0.0
 47
0.0
 47
1.0
 47
0.0
 47
0.0
 47
0.0
 47
0.0
 47
1.0
171
     0
 49
0.0208333333333333
 49
0.0
 49
0.0
 49
0.0
 49
0.0
 49
0.0208333333333333
 49
0.0
 49
0.0
 49
0.0
 49
0.0
 49
1.0
 49
0.0
 49
0.0
 49
0.0
 49
0.0
 49
1.0
175
     0
142
0.0208333333333333
142
0.0
142
0.0
142
0.0
142
0.0
142
0.0208333333333333
142
0.0
142
0.0
142
0.0
142
0.0
142
1.0
142
0.0
142
0.0
142
0.0
142
0.0
142
1.0
179
     0
144
0.0208333333333333
144
0.0
144
0.0
144
0.0
144
0.0
144
0.0208333333333333
144
0.0
144
0.0
144
0.0
144
0.0
144
1.0
144
0.0
144
0.0
144
0.0
144
0.0
144
1.0
147
0.0208333333333333
147
0.0
147
0.0
147
0.0
147
0.0
147
0.0208333333333333
147
0.0
147
0.0
147
0.0
147
0.0
147
1.0
147
0.0
147
0.0
147
0.0
147
0.0
147
1.0
  0
MLEADERSTYLE
  5
66
102
{ACAD_REACTORS
330
65
102
}
330
65
100
AcDbMLeaderStyle
179
     2
170
     2
171
     1
172
     0
 90
        2
 40
0.0
 41
0.0
173
     1
 91
-1056964608
340
5A
 92
       -2
290
     1
 42
0.09
291
     1
 43
0.36
  3
Standard
 44
0.18
300

342
55
174
     1
178
     6
175
     1
176
     0
 93
-1056964608
 45
0.18
292
     0
297
     0
 46
0.18
 94
-1056964608
 47
1.0
 49
1.0
140
1.0
293
     1
141
0.0
294
     1
177
     0
142
1.0
295
     0
296
     0
143
0.125
271
     0
272
     9
273
     9
298
     0
  0
MLINESTYLE
  5
5F
102
{ACAD_REACTORS
330
5E
102
}
330
5E
100
AcDbMlineStyle
  2
STANDARD
 70
     0
  3

 62
   256
 51
90.0
 52
90.0
 71
     2
 49
0.5
 62
   256
  6
BYLAYER
 49
-0.5
 62
   256
  6
BYLAYER
  0
ACDBPLACEHOLDER
  5
F
102
{ACAD_REACTORS
330
E
102
}
330
E
  0
SCALE
  5
43
102
{ACAD_REACTORS
330
42
102
}
330
42
100
AcDbScale
 70
     0
300
1:1
140
1.0
141
1.0
290
     1
  0
SCALE
  5
44
102
{ACAD_REACTORS
330
42
102
}
330
42
100
AcDbScale
 70
     0
300
1/128" = 1'-0"
140
0.0078125
141
12.0
290
     0
  0
SCALE
  5
45
102
{ACAD_REACTORS
330
42
102
}
330
42
100
AcDbScale
 70
     0
300
1/64" = 1'-0"
140
0.015625
141
12.0
290
     0
  0
SCALE
  5
46
102
{ACAD_REACTORS
330
42
102
}
330
42
100
AcDbScale
 70
     0
300
1/32" = 1'-0"
140
0.03125
141
12.0
290
     0
  0
SCALE
  5
47
102
{ACAD_REACTORS
330
42
102
}
330
42
100
AcDbScale
 70
     0
300
1/16" = 1'-0"
140
0.0625
141
12.0
290
     0
  0
SCALE
  5
48
102
{ACAD_REACTORS
330
42
102
}
330
42
100
AcDbScale
 70
     0
300
3/32" = 1'-0"
140
0.09375
141
12.0
290
     0
  0
SCALE
  5
49
102
{ACAD_REACTORS
330
42
102
}
330
42
100
AcDbScale
 70
     0
300
1/8" = 1'-0"
140
0.125
141
12.0
290
     0
  0
SCALE
  5
4A
102
{ACAD_REACTORS
330
42
102
}
330
42
100
AcDbScale
 70
     0
300
3/16" = 1'-0"
140
0.1875
141
12.0
290
     0
  0
SCALE
  5
4B
102
{ACAD_REACTORS
330
42
102
}
330
42
100
AcDbScale
 70
     0
300
1/4" = 1'-0"
140
0.25
141
12.0
290
     0
  0
SCALE
  5
4C
102
{ACAD_REACTORS
330
42
102
}
330
42
100
AcDbScale
 70
     0
300
3/8" = 1'-0"
140
0.375
141
12.0
290
     0
  0
SCALE
  5
4D
102
{ACAD_REACTORS
330
42
102
}
330
42
100
AcDbScale
 70
     0
300
1/2" = 1'-0"
140
0.5
141
12.0
290
     0
  0
SCALE
  5
4E
102
{ACAD_REACTORS
330
42
102
}
330
42
100
AcDbScale
 70
     0
300
3/4" = 1'-0"
140
0.75
141
12.0
290
     0
  0
SCALE
  5
4F
102
{ACAD_REACTORS
330
42
102
}
330
42
100
AcDbScale
 70
     0
300
1" = 1'-0"
140
1.0
141
12.0
290
     0
  0
SCALE
  5
50
102
{ACAD_REACTORS
330
42
102
}
330
42
100
AcDbScale
 70
     0
300
1-1/2" = 1'-0"
140
1.5
141
12.0
290
     0
  0
SCALE
  5
51
102
{ACAD_REACTORS
330
42
102
}
330
42
100
AcDbScale
 70
     0
300
3" = 1'-0"
140
3.0
141
12.0
290
     0
  0
SCALE
  5
52
102
{ACAD_REACTORS
330
42
102
}
330
42
100
AcDbScale
 70
     0
300
6" = 1'-0"
140
6.0
141
12.0
290
     0
  0
SCALE
  5
53
102
{ACAD_REACTORS
330
42
102
}
330
42
100
AcDbScale
 70
     0
300
1'-0" = 1'-0"
140
12.0
141
12.0
290
     0
  0
ACDBSECTIONVIEWSTYLE
  5
68
102
{ACAD_REACTORS
330
67
102
}
330
67
100
AcDbModelDocViewStyle
 70
     0
  3
Imperial24
290
     0
300
Imperial24
 90
        0
100
AcDbSectionViewStyle
 70
     0
 71
     0
 90
       78
 71
     1
340
55
 62
   256
 40
0.24
340
0
340
0
 62
   256
 40
0.24
300
I, O, Q, S, X, Z
 40
0.48
 90
        3
 40
0.18
 90
        1
 71
     2
340
5C
 90
       25
 62
   256
340
5C
 90
       50
 62
   256
 40
0.24
 40
0.0
 40
0.24
 71
     3
340
55
 62
   256
 40
0.24
 90
        1
 40
0.75
 90
        1
300
%<\AcVar ViewType \f "%tc1">% %<\AcVar ViewSectionStartId>%-%<\AcVar ViewSectionEndId>%\PSCALE %<\AcVar ViewScale \f "%sn">%
 71
     4
 62
   256
 62
   257
300
ANSI31
 40
1.0
 90
        0
290
     0
290
     0
 90
        6
 40
0.0
 40
1.570796326794896
 40
0.2617993877991494
 40
1.308996938995747
 40
-0.2617993877991494
 40
1.832595714594046
  0
TABLESTYLE
  5
64
102
{ACAD_XDICTIONARY
360
543
102
}
102
{ACAD_REACTORS
330
63
102
}
330
63
100
AcDbTableStyle
280
     0
  3
Standard
 70
     0
 71
     0
 40
0.06
 41
0.06
280
     0
281
     0
  7
Standard
140
0.18
170
     2
 62
     0
 63
     7
283
     0
 90
      512
 91
        0
  1

274
    -2
284
     1
 64
     0
275
    -2
285
     1
 65
     0
276
    -2
286
     1
 66
     0
277
    -2
287
     1
 67
     0
278
    -2
288
     1
 68
     0
279
    -2
289
     1
 69
     0
  7
Standard
140
0.25
170
     5
 62
     0
 63
     7
283
     0
 90
      512
 91
        0
  1

274
    -2
284
     1
 64
     0
275
    -2
285
     1
 65
     0
276
    -2
286
     1
 66
     0
277
    -2
287
     1
 67
     0
278
    -2
288
     1
 68
     0
279
    -2
289
     1
 69
     0
  7
Standard
140
0.18
170
     5
 62
     0
 63
     7
283
     0
 90
      512
 91
        0
  1

274
    -2
284
     1
 64
     0
275
    -2
285
     1
 65
     0
276
    -2
286
     1
 66
     0
277
    -2
287
     1
 67
     0
278
    -2
288
     1
 68
     0
279
    -2
289
     1
 69
     0
  0
VISUALSTYLE
  5
2F
102
{ACAD_REACTORS
330
29
102
}
330
29
100
AcDbVisualStyle
  2
2dWireframe
 70
     4
177
     3
291
     0
 70
    58
 90
        0
176
     1
 90
        2
176
     1
 90
        0
176
     1
 90
        0
176
     1
 40
0.6
176
     1
 40
30.0
176
     1
 62
     7
420
 16777215
176
     1
 90
        1
176
     1
 90
        4
176
     1
 62
     7
176
     1
 62
   257
176
     1
 90
        1
176
     1
 90
        1
176
     1
 40
1.0
176
     1
 90
        0
176
     1
 62
   257
176
     1
 40
1.0
176
     1
 90
        1
176
     1
 90
        6
176
     1
 90
        2
176
     1
 62
     7
176
     1
 90
        5
176
     1
 90
        0
176
     1
 90
        0
176
     1
290
     0
176
     1
 90
        1
176
     1
 40
0.0
176
     1
 90
        0
176
     1
290
     1
176
     1
290
     1
176
     1
290
     0
176
     1
290
     0
176
     1
290
     0
176
     1
290
     0
176
     1
290
     0
176
     1
290
     0
176
     1
290
     0
176
     1
 90
       50
176
     1
 40
0.0
176
     1
 40
1.0
176
     1
 90
        0
176
     1
 62
    18
420
        0
176
     1
 90
       50
176
     1
 90
        3
176
     1
 62
     5
420
      255
176
     1
290
     0
176
     1
 90
       50
176
     1
 90
       50
176
     1
 90
       50
176
     1
290
     0
176
     1
 90
       50
176
     1
 62
   256
176
     0
 40
1.0
176
     0
 90
        2
176
     1
  1
strokes_ogs.tif
176
     1
290
     0
176
     1
 40
1.0
176
     1
 40
1.0
176
     1
  0
VISUALSTYLE
  5
2E
102
{ACAD_REACTORS
330
29
102
}
330
29
100
AcDbVisualStyle
  2
Basic
 70
     7
177
     3
291
     1
 70
    58
 90
        1
176
     1
 90
        0
176
     1
 90
        1
176
     1
 90
        0
176
     1
 40
0.6
176
     1
 40
30.0
176
     1
 62
     7
420
 16777215
176
     1
 90
        0
176
     1
 90
        4
176
     1
 62
     7
176
     1
 62
   257
176
     1
 90
        1
176
     1
 90
        1
176
     1
 40
1.0
176
     1
 90
        8
176
     1
 62
     7
176
     1
 40
1.0
176
     1
 90
        1
176
     1
 90
        6
176
     1
 90
        2
176
     1
 62
     7
176
     1
 90
        5
176
     1
 90
        0
176
     1
 90
        0
176
     1
290
     0
176
     1
 90
        1
176
     1
 40
0.0
176
     1
 90
        0
176
     1
290
     0
176
     1
290
     1
176
     1
290
     1
176
     1
290
     0
176
     1
290
     0
176
     1
290
     0
176
     1
290
     0
176
     1
290
     0
176
     1
290
     0
176
     1
 90
       50
176
     1
 40
0.0
176
     1
 40
1.0
176
     1
 90
        0
176
     1
 62
    18
420
        0
176
     1
 90
       50
176
     1
 90
        3
176
     1
 62
     5
420
      255
176
     1
290
     0
176
     1
 90
       50
176
     1
 90
       50
176
     1
 90
       50
176
     1
290
     0
176
     1
 90
       50
176
     1
 62
   256
176
     0
 40
1.0
176
     0
 90
        2
176
     1
  1
strokes_ogs.tif
176
     1
290
     0
176
     1
 40
1.0
176
     1
 40
1.0
176
     1
  0
VISUALSTYLE
  5
35
102
{ACAD_REACTORS
330
29
102
}
330
29
100
AcDbVisualStyle
  2
Brighten
 70
    12
177
     3
291
     1
 70
    58
 90
        2
176
     1
 90
        2
176
     1
 90
        0
176
     1
 90
        0
176
     1
 40
0.6
176
     1
 40
30.0
176
     1
 62
     7
420
 16777215
176
     1
 90
        1
176
     1
 90
        4
176
     1
 62
     7
176
     1
 62
   257
176
     1
 90
        1
176
     1
 90
        1
176
     1
 40
1.0
176
     1
 90
        8
176
     1
 62
     7
176
     1
 40
1.0
176
     1
 90
        1
176
     1
 90
        6
176
     1
 90
        2
176
     1
 62
     7
176
     1
 90
        5
176
     1
 90
        0
176
     1
 90
        0
176
     1
290
     0
176
     1
 90
        1
176
     1
 40
50.0
176
     1
 90
        0
176
     1
290
     0
176
     1
290
     1
176
     1
290
     1
176
     1
290
     0
176
     1
290
     0
176
     1
290
     0
176
     1
290
     0
176
     1
290
     0
176
     1
290
     0
176
     1
 90
       50
176
     1
 40
0.0
176
     1
 40
1.0
176
     1
 90
        0
176
     1
 62
    18
420
        0
176
     1
 90
       50
176
     1
 90
        3
176
     1
 62
     5
420
      255
176
     1
290
     0
176
     1
 90
       50
176
     1
 90
       50
176
     1
 90
       50
176
     1
290
     0
176
     1
 90
       50
176
     1
 62
   256
176
     0
 40
1.0
176
     0
 90
        2
176
     1
  1
strokes_ogs.tif
176
     1
290
     0
176
     1
 40
1.0
176
     1
 40
1.0
176
     1
  0
VISUALSTYLE
  5
39
102
{ACAD_REACTORS
330
29
102
}
330
29
100
AcDbVisualStyle
  2
ColorChange
 70
    16
177
     3
291
     1
 70
    58
 90
        2
176
     1
 90
        2
176
     1
 90
        3
176
     1
 90
        0
176
     1
 40
0.6
176
     1
 40
30.0
176
     1
 62
     8
420
  8421504
176
     1
 90
        1
176
     1
 90
        4
176
     1
 62
     7
176
     1
 62
   257
176
     1
 90
        1
176
     1
 90
        1
176
     1
 40
1.0
176
     1
 90
        8
176
     1
 62
     8
420
  8421504
176
     1
 40
1.0
176
     1
 90
        1
176
     1
 90
        6
176
     1
 90
        2
176
     1
 62
     7
176
     1
 90
        5
176
     1
 90
        0
176
     1
 90
        0
176
     1
290
     0
176
     1
 90
        1
176
     1
 40
0.0
176
     1
 90
        0
176
     1
290
     0
176
     1
290
     1
176
     1
290
     1
176
     1
290
     0
176
     1
290
     0
176
     1
290
     0
176
     1
290
     0
176
     1
290
     0
176
     1
290
     0
176
     1
 90
       50
176
     1
 40
0.0
176
     1
 40
1.0
176
     1
 90
        0
176
     1
 62
    18
420
        0
176
     1
 90
       50
176
     1
 90
        3
176
     1
 62
     5
420
      255
176
     1
290
     0
176
     1
 90
       50
176
     1
 90
       50
176
     1
 90
       50
176
     1
290
     0
176
     1
 90
       50
176
     1
 62
   256
176
     0
 40
1.0
176
     0
 90
        2
176
     1
  1
strokes_ogs.tif
176
     1
290
     0
176
     1
 40
1.0
176
     1
 40
1.0
176
     1
  0
VISUALSTYLE
  5
32
102
{ACAD_REACTORS
330
29
102
}
330
29
100
AcDbVisualStyle
  2
Conceptual
 70
     9
177
     3
291
     0
 70
    58
 90
        3
176
     1
 90
        2
176
     1
 90
        0
176
     1
 90
        0
176
     1
 40
0.6
176
     1
 40
30.0
176
     1
 62
     7
420
 16777215
176
     1
 90
        2
176
     1
 90
        2
176
     1
 62
     7
176
     1
 62
   257
176
     1
 90
        1
176
     1
 90
        1
176
     1
 40
179.0
176
     1
 90
        8
176
     1
 62
     7
176
     1
 40
1.0
176
     1
 90
        1
176
     1
 90
        6
176
     1
 90
        2
176
     1
 62
     7
176
     1
 90
        3
176
     1
 90
        0
176
     1
 90
        0
176
     1
290
     0
176
     1
 90
        1
176
     1
 40
0.0
176
     1
 90
        0
176
     1
290
     0
176
     1
290
     1
176
     1
290
     1
176
     1
290
     0
176
     1
290
     0
176
     1
290
     0
176
     1
290
     0
176
     1
290
     0
176
     1
290
     0
176
     1
 90
       50
176
     1
 40
0.0
176
     1
 40
1.0
176
     1
 90
        0
176
     1
 62
    18
420
        0
176
     1
 90
       50
176
     1
 90
        3
176
     1
 62
     5
420
      255
176
     1
290
     0
176
     1
 90
       50
176
     1
 90
       50
176
     1
 90
       50
176
     1
290
     0
176
     1
 90
       50
176
     1
 62
   256
176
     0
 40
1.0
176
     0
 90
        2
176
     1
  1
strokes_ogs.tif
176
     1
290
     0
176
     1
 40
1.0
176
     1
 40
1.0
176
     1
  0
VISUALSTYLE
  5
34
102
{ACAD_REACTORS
330
29
102
}
330
29
100
AcDbVisualStyle
  2
Dim
 70
    11
177
     3
291
     1
 70
    58
 90
        2
176
     1
 90
        2
176
     1
 90
        0
176
     1
 90
        0
176
     1
 40
0.6
176
     1
 40
30.0
176
     1
 62
     7
420
 16777215
176
     1
 90
        1
176
     1
 90
        4
176
     1
 62
     7
176
     1
 62
   257
176
     1
 90
        1
176
     1
 90
        1
176
     1
 40
1.0
176
     1
 90
        8
176
     1
 62
     7
176
     1
 40
1.0
176
     1
 90
        1
176
     1
 90
        6
176
     1
 90
        2
176
     1
 62
     7
176
     1
 90
        5
176
     1
 90
        0
176
     1
 90
        0
176
     1
290
     0
176
     1
 90
        1
176
     1
 40
-50.0
176
     1
 90
        0
176
     1
290
     0
176
     1
290
     1
176
     1
290
     1
176
     1
290
     0
176
     1
290
     0
176
     1
290
     0
176
     1
290
     0
176
     1
290
     0
176
     1
290
     0
176
     1
 90
       50
176
     1
 40
0.0
176
     1
 40
1.0
176
     1
 90
        0
176
     1
 62
    18
420
        0
176
     1
 90
       50
176
     1
 90
        3
176
     1
 62
     5
420
      255
176
     1
290
     0
176
     1
 90
       50
176
     1
 90
       50
176
     1
 90
       50
176
     1
290
     0
176
     1
 90
       50
176
     1
 62
   256
176
     0
 40
1.0
176
     0
 90
        2
176
     1
  1
strokes_ogs.tif
176
     1
290
     0
176
     1
 40
1.0
176
     1
 40
1.0
176
     1
  0
VISUALSTYLE
  5
41
102
{ACAD_REACTORS
330
29
102
}
330
29
100
AcDbVisualStyle
  2
EdgeColorOff
 70
    22
177
     3
291
     1
 70
    58
 90
        2
176
     0
 90
        2
176
     0
 90
        0
176
     0
 90
        0
176
     0
 40
0.6
176
     0
 40
30.0
176
     0
 62
     7
420
 16777215
176
     0
 90
        1
176
     0
 90
        4
176
     0
 62
     7
176
     0
 62
   257
176
     0
 90
        1
176
     0
 90
        1
176
     0
 40
1.0
176
     0
 90
        8
176
     2
 62
     7
176
     0
 40
1.0
176
     0
 90
        1
176
     0
 90
        6
176
     0
 90
        2
176
     0
 62
     7
176
     0
 90
        5
176
     0
 90
        0
176
     0
 90
        0
176
     0
290
     0
176
     0
 90
        1
176
     0
 40
0.0
176
     0
 90
        0
176
     0
290
     0
176
     1
290
     1
176
     1
290
     1
176
     1
290
     0
176
     1
290
     0
176
     1
290
     0
176
     1
290
     0
176
     1
290
     0
176
     1
290
     0
176
     1
 90
       50
176
     0
 40
0.0
176
     0
 40
1.0
176
     0
 90
        0
176
     0
 62
    18
420
        0
176
     0
 90
       50
176
     0
 90
        3
176
     0
 62
     5
420
      255
176
     0
290
     0
176
     1
 90
       50
176
     0
 90
       50
176
     0
 90
       50
176
     0
290
     0
176
     1
 90
       50
176
     0
 62
   256
176
     0
 40
1.0
176
     0
 90
        2
176
     0
  1
strokes_ogs.tif
176
     0
290
     0
176
     1
 40
1.0
176
     0
 40
1.0
176
     0
  0
VISUALSTYLE
  5
38
102
{ACAD_REACTORS
330
29
102
}
330
29
100
AcDbVisualStyle
  2
Facepattern
 70
    15
177
     3
291
     1
 70
    58
 90
        2
176
     1
 90
        2
176
     1
 90
        0
176
     1
 90
        0
176
     1
 40
0.6
176
     1
 40
30.0
176
     1
 62
     7
420
 16777215
176
     1
 90
        1
176
     1
 90
        4
176
     1
 62
     7
176
     1
 62
   257
176
     1
 90
        1
176
     1
 90
        1
176
     1
 40
1.0
176
     1
 90
        8
176
     1
 62
     7
176
     1
 40
1.0
176
     1
 90
        1
176
     1
 90
        6
176
     1
 90
        2
176
     1
 62
     7
176
     1
 90
        5
176
     1
 90
        0
176
     1
 90
        0
176
     1
290
     0
176
     1
 90
        1
176
     1
 40
0.0
176
     1
 90
        0
176
     1
290
     0
176
     1
290
     1
176
     1
290
     1
176
     1
290
     0
176
     1
290
     0
176
     1
290
     0
176
     1
290
     0
176
     1
290
     0
176
     1
290
     0
176
     1
 90
       50
176
     1
 40
0.0
176
     1
 40
1.0
176
     1
 90
        0
176
     1
 62
    18
420
        0
176
     1
 90
       50
176
     1
 90
        3
176
     1
 62
     5
420
      255
176
     1
290
     0
176
     1
 90
       50
176
     1
 90
       50
176
     1
 90
       50
176
     1
290
     0
176
     1
 90
       50
176
     1
 62
   256
176
     0
 40
1.0
176
     0
 90
        2
176
     1
  1
strokes_ogs.tif
176
     1
290
     0
176
     1
 40
1.0
176
     1
 40
1.0
176
     1
  0
VISUALSTYLE
  5
2A
102
{ACAD_REACTORS
330
29
102
}
330
29
100
AcDbVisualStyle
  2
Flat
 70
     0
177
     3
291
     1
 70
    58
 90
        2
176
     1
 90
        1
176
     1
 90
        1
176
     1
 90
        2
176
     1
 40
0.6
176
     1
 40
30.0
176
     1
 62
     7
420
 16777215
176
     1
 90
        0
176
     1
 90
        0
176
     1
 62
     7
176
     1
 62
   257
176
     1
 90
        1
176
     1
 90
        1
176
     1
 40
1.0
176
     1
 90
        8
176
     1
 62
     7
176
     1
 40
1.0
176
     1
 90
        1
176
     1
 90
        6
176
     1
 90
        2
176
     1
 62
     7
176
     1
 90
        5
176
     1
 90
        0
176
     1
 90
        0
176
     1
290
     0
176
     1
 90
       13
176
     1
 40
0.0
176
     1
 90
        0
176
     1
290
     0
176
     1
290
     1
176
     1
290
     1
176
     1
290
     0
176
     1
290
     0
176
     1
290
     0
176
     1
290
     0
176
     1
290
     0
176
     1
290
     0
176
     1
 90
       50
176
     1
 40
0.0
176
     1
 40
1.0
176
     1
 90
        0
176
     1
 62
    18
420
        0
176
     1
 90
       50
176
     1
 90
        3
176
     1
 62
     5
420
      255
176
     1
290
     0
176
     1
 90
       50
176
     1
 90
       50
176
     1
 90
       50
176
     1
290
     0
176
     1
 90
       50
176
     1
 62
   256
176
     0
 40
1.0
176
     0
 90
        2
176
     1
  1
strokes_ogs.tif
176
     1
290
     0
176
     1
 40
1.0
176
     1
 40
1.0
176
     1
  0
VISUALSTYLE
  5
2B
102
{ACAD_REACTORS
330
29
102
}
330
29
100
AcDbVisualStyle
  2
FlatWithEdges
 70
     1
177
     3
291
     1
 70
    58
 90
        2
176
     1
 90
        1
176
     1
 90
        1
176
     1
 90
        2
176
     1
 40
0.6
176
     1
 40
30.0
176
     1
 62
     7
420
 16777215
176
     1
 90
        1
176
     1
 90
        0
176
     1
 62
     7
176
     1
 62
   257
176
     1
 90
        1
176
     1
 90
        1
176
     1
 40
1.0
176
     1
 90
        0
176
     1
 62
   257
176
     1
 40
1.0
176
     1
 90
        1
176
     1
 90
        6
176
     1
 90
        2
176
     1
 62
     7
176
     1
 90
        5
176
     1
 90
        0
176
     1
 90
        0
176
     1
290
     0
176
     1
 90
       13
176
     1
 40
0.0
176
     1
 90
        0
176
     1
290
     0
176
     1
290
     1
176
     1
290
     1
176
     1
290
     0
176
     1
290
     0
176
     1
290
     0
176
     1
290
     0
176
     1
290
     0
176
     1
290
     0
176
     1
 90
       50
176
     1
 40
0.0
176
     1
 40
1.0
176
     1
 90
        0
176
     1
 62
    18
420
        0
176
     1
 90
       50
176
     1
 90
        3
176
     1
 62
     5
420
      255
176
     1
290
     0
176
     1
 90
       50
176
     1
 90
       50
176
     1
 90
       50
176
     1
290
     0
176
     1
 90
       50
176
     1
 62
   256
176
     0
 40
1.0
176
     0
 90
        2
176
     1
  1
strokes_ogs.tif
176
     1
290
     0
176
     1
 40
1.0
176
     1
 40
1.0
176
     1
  0
VISUALSTYLE
  5
2C
102
{ACAD_REACTORS
330
29
102
}
330
29
100
AcDbVisualStyle
  2
Gouraud
 70
     2
177
     3
291
     1
 70
    58
 90
        2
176
     1
 90
        2
176
     1
 90
        1
176
     1
 90
        2
176
     1
 40
0.6
176
     1
 40
30.0
176
     1
 62
     7
420
 16777215
176
     1
 90
        0
176
     1
 90
        0
176
     1
 62
     7
176
     1
 62
   257
176
     1
 90
        1
176
     1
 90
        1
176
     1
 40
1.0
176
     1
 90
        0
176
     1
 62
     7
176
     1
 40
1.0
176
     1
 90
        1
176
     1
 90
        6
176
     1
 90
        2
176
     1
 62
     7
176
     1
 90
        5
176
     1
 90
        0
176
     1
 90
        0
176
     1
290
     0
176
     1
 90
       13
176
     1
 40
0.0
176
     1
 90
        0
176
     1
290
     0
176
     1
290
     1
176
     1
290
     1
176
     1
290
     0
176
     1
290
     0
176
     1
290
     0
176
     1
290
     0
176
     1
290
     0
176
     1
290
     0
176
     1
 90
       50
176
     1
 40
0.0
176
     1
 40
1.0
176
     1
 90
        0
176
     1
 62
    18
420
        0
176
     1
 90
       50
176
     1
 90
        3
176
     1
 62
     5
420
      255
176
     1
290
     0
176
     1
 90
       50
176
     1
 90
       50
176
     1
 90
       50
176
     1
290
     0
176
     1
 90
       50
176
     1
 62
   256
176
     0
 40
1.0
176
     0
 90
        2
176
     1
  1
strokes_ogs.tif
176
     1
290
     0
176
     1
 40
1.0
176
     1
 40
1.0
176
     1
  0
VISUALSTYLE
  5
2D
102
{ACAD_REACTORS
330
29
102
}
330
29
100
AcDbVisualStyle
  2
GouraudWithEdges
 70
     3
177
     3
291
     1
 70
    58
 90
        2
176
     1
 90
        2
176
     1
 90
        1
176
     1
 90
        2
176
     1
 40
0.6
176
     1
 40
30.0
176
     1
 62
     7
420
 16777215
176
     1
 90
        1
176
     1
 90
        0
176
     1
 62
     7
176
     1
 62
   257
176
     1
 90
        1
176
     1
 90
        1
176
     1
 40
1.0
176
     1
 90
        0
176
     1
 62
   257
176
     1
 40
1.0
176
     1
 90
        1
176
     1
 90
        6
176
     1
 90
        2
176
     1
 62
     7
176
     1
 90
        5
176
     1
 90
        0
176
     1
 90
        0
176
     1
290
     0
176
     1
 90
       13
176
     1
 40
0.0
176
     1
 90
        0
176
     1
290
     0
176
     1
290
     1
176
     1
290
     1
176
     1
290
     0
176
     1
290
     0
176
     1
290
     0
176
     1
290
     0
176
     1
290
     0
176
     1
290
     0
176
     1
 90
       50
176
     1
 40
0.0
176
     1
 40
1.0
176
     1
 90
        0
176
     1
 62
    18
420
        0
176
     1
 90
       50
176
     1
 90
        3
176
     1
 62
     5
420
      255
176
     1
290
     0
176
     1
 90
       50
176
     1
 90
       50
176
     1
 90
       50
176
     1
290
     0
176
     1
 90
       50
176
     1
 62
   256
176
     0
 40
1.0
176
     0
 90
        2
176
     1
  1
strokes_ogs.tif
176
     1
290
     0
176
     1
 40
1.0
176
     1
 40
1.0
176
     1
  0
VISUALSTYLE
  5
31
102
{ACAD_REACTORS
330
29
102
}
330
29
100
AcDbVisualStyle
  2
Hidden
 70
     6
177
     3
291
     0
 70
    58
 90
        1
176
     1
 90
        2
176
     1
 90
        2
176
     1
 90
        0
176
     1
 40
0.6
176
     1
 40
30.0
176
     1
 62
     7
420
 16777215
176
     1
 90
        2
176
     1
 90
        2
176
     1
 62
     7
176
     1
 62
   257
176
     1
 90
        2
176
     1
 90
        1
176
     1
 40
40.0
176
     1
 90
        0
176
     1
 62
   257
176
     1
 40
1.0
176
     1
 90
        1
176
     1
 90
        6
176
     1
 90
        2
176
     1
 62
     7
176
     1
 90
        3
176
     1
 90
        0
176
     1
 90
        0
176
     1
290
     0
176
     1
 90
        1
176
     1
 40
0.0
176
     1
 90
        0
176
     1
290
     0
176
     1
290
     1
176
     1
290
     1
176
     1
290
     0
176
     1
290
     0
176
     1
290
     0
176
     1
290
     0
176
     1
290
     0
176
     1
290
     0
176
     1
 90
       50
176
     1
 40
0.0
176
     1
 40
1.0
176
     1
 90
        0
176
     1
 62
    18
420
        0
176
     1
 90
       50
176
     1
 90
        3
176
     1
 62
     5
420
      255
176
     1
290
     0
176
     1
 90
       50
176
     1
 90
       50
176
     1
 90
       50
176
     1
290
     0
176
     1
 90
       50
176
     1
 62
   256
176
     0
 40
1.0
176
     0
 90
        2
176
     1
  1
strokes_ogs.tif
176
     1
290
     0
176
     1
 40
1.0
176
     1
 40
1.0
176
     1
  0
VISUALSTYLE
  5
3F
102
{ACAD_REACTORS
330
29
102
}
330
29
100
AcDbVisualStyle
  2
JitterOff
 70
    20
177
     3
291
     1
 70
    58
 90
        2
176
     0
 90
        2
176
     0
 90
        0
176
     0
 90
        0
176
     0
 40
0.6
176
     0
 40
30.0
176
     0
 62
     7
420
 16777215
176
     0
 90
        1
176
     0
 90
        4
176
     0
 62
     7
176
     0
 62
   257
176
     0
 90
        1
176
     0
 90
        1
176
     0
 40
1.0
176
     0
 90
       10
176
     2
 62
     7
176
     0
 40
1.0
176
     0
 90
        1
176
     0
 90
        6
176
     0
 90
        2
176
     0
 62
     7
176
     0
 90
        5
176
     0
 90
        0
176
     0
 90
        0
176
     0
290
     0
176
     0
 90
        1
176
     0
 40
0.0
176
     0
 90
        0
176
     0
290
     0
176
     1
290
     1
176
     1
290
     1
176
     1
290
     0
176
     1
290
     0
176
     1
290
     0
176
     1
290
     0
176
     1
290
     0
176
     1
290
     0
176
     1
 90
       50
176
     0
 40
0.0
176
     0
 40
1.0
176
     0
 90
        0
176
     0
 62
    18
420
        0
176
     0
 90
       50
176
     0
 90
        3
176
     0
 62
     5
420
      255
176
     0
290
     0
176
     1
 90
       50
176
     0
 90
       50
176
     0
 90
       50
176
     0
290
     0
176
     1
 90
       50
176
     0
 62
   256
176
     0
 40
1.0
176
     0
 90
        2
176
     0
  1
strokes_ogs.tif
176
     0
290
     0
176
     1
 40
1.0
176
     0
 40
1.0
176
     0
  0
VISUALSTYLE
  5
37
102
{ACAD_REACTORS
330
29
102
}
330
29
100
AcDbVisualStyle
  2
Linepattern
 70
    14
177
     3
291
     1
 70
    58
 90
        2
176
     1
 90
        2
176
     1
 90
        0
176
     1
 90
        0
176
     1
 40
0.6
176
     1
 40
30.0
176
     1
 62
     7
420
 16777215
176
     1
 90
        1
176
     1
 90
        4
176
     1
 62
     7
176
     1
 62
   257
176
     1
 90
        7
176
     1
 90
        7
176
     1
 40
1.0
176
     1
 90
        8
176
     1
 62
     7
176
     1
 40
1.0
176
     1
 90
        1
176
     1
 90
        6
176
     1
 90
        2
176
     1
 62
     7
176
     1
 90
        5
176
     1
 90
        0
176
     1
 90
        0
176
     1
290
     0
176
     1
 90
        1
176
     1
 40
0.0
176
     1
 90
        0
176
     1
290
     0
176
     1
290
     1
176
     1
290
     1
176
     1
290
     0
176
     1
290
     0
176
     1
290
     0
176
     1
290
     0
176
     1
290
     0
176
     1
290
     0
176
     1
 90
       50
176
     1
 40
0.0
176
     1
 40
1.0
176
     1
 90
        0
176
     1
 62
    18
420
        0
176
     1
 90
       50
176
     1
 90
        3
176
     1
 62
     5
420
      255
176
     1
290
     0
176
     1
 90
       50
176
     1
 90
       50
176
     1
 90
       50
176
     1
290
     0
176
     1
 90
       50
176
     1
 62
   256
176
     0
 40
1.0
176
     0
 90
        2
176
     1
  1
strokes_ogs.tif
176
     1
290
     0
176
     1
 40
1.0
176
     1
 40
1.0
176
     1
  0
VISUALSTYLE
  5
40
102
{ACAD_REACTORS
330
29
102
}
330
29
100
AcDbVisualStyle
  2
OverhangOff
 70
    21
177
     3
291
     1
 70
    58
 90
        2
176
     0
 90
        2
176
     0
 90
        0
176
     0
 90
        0
176
     0
 40
0.6
176
     0
 40
30.0
176
     0
 62
     7
420
 16777215
176
     0
 90
        1
176
     0
 90
        4
176
     0
 62
     7
176
     0
 62
   257
176
     0
 90
        1
176
     0
 90
        1
176
     0
 40
1.0
176
     0
 90
        9
176
     2
 62
     7
176
     0
 40
1.0
176
     0
 90
        1
176
     0
 90
        6
176
     0
 90
        2
176
     0
 62
     7
176
     0
 90
        5
176
     0
 90
        0
176
     0
 90
        0
176
     0
290
     0
176
     0
 90
        1
176
     0
 40
0.0
176
     0
 90
        0
176
     0
290
     0
176
     1
290
     1
176
     1
290
     1
176
     1
290
     0
176
     1
290
     0
176
     1
290
     0
176
     1
290
     0
176
     1
290
     0
176
     1
290
     0
176
     1
 90
       50
176
     0
 40
0.0
176
     0
 40
1.0
176
     0
 90
        0
176
     0
 62
    18
420
        0
176
     0
 90
       50
176
     0
 90
        3
176
     0
 62
     5
420
      255
176
     0
290
     0
176
     1
 90
       50
176
     0
 90
       50
176
     0
 90
       50
176
     0
290
     0
176
     1
 90
       50
176
     0
 62
   256
176
     0
 40
1.0
176
     0
 90
        2
176
     0
  1
strokes_ogs.tif
176
     0
290
     0
176
     1
 40
1.0
176
     0
 40
1.0
176
     0
  0
VISUALSTYLE
  5
33
102
{ACAD_REACTORS
330
29
102
}
330
29
100
AcDbVisualStyle
  2
Realistic
 70
     8
177
     3
291
     0
 70
    58
 90
        2
176
     1
 90
        3
176
     1
 90
        0
176
     1
 90
        2
176
     1
 40
0.6
176
     1
 40
30.0
176
     1
 62
     7
420
 16777215
176
     1
 90
        0
176
     1
 90
        0
176
     1
 62
     7
176
     1
 62
   257
176
     1
 90
        1
176
     1
 90
        1
176
     1
 40
1.0
176
     1
 90
        8
176
     1
 62
   257
176
     1
 40
1.0
176
     1
 90
        1
176
     1
 90
        6
176
     1
 90
        2
176
     1
 62
     7
176
     1
 90
        3
176
     1
 90
        0
176
     1
 90
        0
176
     1
290
     0
176
     1
 90
       13
176
     1
 40
0.0
176
     1
 90
        0
176
     1
290
     0
176
     1
290
     1
176
     1
290
     1
176
     1
290
     0
176
     1
290
     0
176
     1
290
     0
176
     1
290
     0
176
     1
290
     0
176
     1
290
     0
176
     1
 90
       50
176
     1
 40
0.0
176
     1
 40
1.0
176
     1
 90
        0
176
     1
 62
    18
420
        0
176
     1
 90
       50
176
     1
 90
        3
176
     1
 62
     5
420
      255
176
     1
290
     0
176
     1
 90
       50
176
     1
 90
       50
176
     1
 90
       50
176
     1
290
     0
176
     1
 90
       50
176
     1
 62
   256
176
     0
 40
1.0
176
     0
 90
        2
176
     1
  1
strokes_ogs.tif
176
     1
290
     0
176
     1
 40
1.0
176
     1
 40
1.0
176
     1
  0
VISUALSTYLE
  5
3E
102
{ACAD_REACTORS
330
29
102
}
330
29
100
AcDbVisualStyle
  2
Shaded
 70
    27
177
     3
291
     0
 70
    58
 90
        2
176
     1
 90
        2
176
     1
 90
        1
176
     1
 90
        2
176
     1
 40
0.6
176
     1
 40
30.0
176
     1
 62
     7
420
 16777215
176
     1
 90
        0
176
     1
 90
        4
176
     1
 62
     7
176
     1
 62
   257
176
     1
 90
        1
176
     1
 90
        1
176
     1
 40
1.0
176
     1
 90
        8
176
     1
 62
   257
176
     1
 40
1.0
176
     1
 90
        1
176
     1
 90
        6
176
     1
 90
        2
176
     1
 62
     8
420
  7895160
176
     1
 90
        3
176
     1
 90
        0
176
     1
 90
        0
176
     1
290
     0
176
     1
 90
        5
176
     1
 40
0.0
176
     1
 90
        0
176
     1
290
     0
176
     1
290
     1
176
     1
290
     1
176
     1
290
     0
176
     1
290
     0
176
     1
290
     0
176
     1
290
     0
176
     1
290
     0
176
     1
290
     0
176
     1
 90
       50
176
     1
 40
0.0
176
     1
 40
1.0
176
     1
 90
        0
176
     1
 62
    18
420
        0
176
     1
 90
       50
176
     1
 90
        3
176
     1
 62
     5
420
      255
176
     1
290
     0
176
     1
 90
       50
176
     1
 90
       50
176
     1
 90
       50
176
     1
290
     0
176
     1
 90
       50
176
     1
 62
   256
176
     0
 40
1.0
176
     0
 90
        2
176
     1
  1
strokes_ogs.tif
176
     1
290
     0
176
     1
 40
1.0
176
     1
 40
1.0
176
     1
  0
VISUALSTYLE
  5
3D
102
{ACAD_REACTORS
330
29
102
}
330
29
100
AcDbVisualStyle
  2
Shaded with edges
 70
    26
177
     3
291
     0
 70
    58
 90
        2
176
     1
 90
        2
176
     1
 90
        1
176
     1
 90
        2
176
     1
 40
0.6
176
     1
 40
30.0
176
     1
 62
     7
420
 16777215
176
     1
 90
        1
176
     1
 90
        2
176
     1
 62
     7
176
     1
 62
   257
176
     1
 90
        2
176
     1
 90
        1
176
     1
 40
1.0
176
     1
 90
        8
176
     1
 62
   257
176
     1
 40
1.0
176
     1
 90
        1
176
     1
 90
        6
176
     1
 90
        2
176
     1
 62
     7
176
     1
 90
        3
176
     1
 90
        0
176
     1
 90
        0
176
     1
290
     0
176
     1
 90
        5
176
     1
 40
0.0
176
     1
 90
        0
176
     1
290
     0
176
     1
290
     1
176
     1
290
     1
176
     1
290
     0
176
     1
290
     0
176
     1
290
     0
176
     1
290
     0
176
     1
290
     0
176
     1
290
     0
176
     1
 90
       50
176
     1
 40
0.0
176
     1
 40
1.0
176
     1
 90
        0
176
     1
 62
    18
420
        0
176
     1
 90
       50
176
     1
 90
        3
176
     1
 62
     5
420
      255
176
     1
290
     0
176
     1
 90
       50
176
     1
 90
       50
176
     1
 90
       50
176
     1
290
     0
176
     1
 90
       50
176
     1
 62
   256
176
     0
 40
1.0
176
     0
 90
        2
176
     1
  1
strokes_ogs.tif
176
     1
290
     0
176
     1
 40
1.0
176
     1
 40
1.0
176
     1
  0
VISUALSTYLE
  5
3A
102
{ACAD_REACTORS
330
29
102
}
330
29
100
AcDbVisualStyle
  2
Shades of Gray
 70
    23
177
     3
291
     0
 70
    58
 90
        2
176
     1
 90
        2
176
     1
 90
        3
176
     1
 90
        0
176
     1
 40
0.6
176
     1
 40
30.0
176
     1
 62
     7
420
 16777215
176
     1
 90
        2
176
     1
 90
        2
176
     1
 62
     7
176
     1
 62
     7
176
     1
 90
        1
176
     1
 90
        1
176
     1
 40
40.0
176
     1
 90
        8
176
     1
 62
     7
176
     1
 40
1.0
176
     1
 90
        1
176
     1
 90
        6
176
     1
 90
        2
176
     1
 62
     7
176
     1
 90
        3
176
     1
 90
        0
176
     1
 90
        0
176
     1
290
     0
176
     1
 90
        1
176
     1
 40
0.0
176
     1
 90
        0
176
     1
290
     0
176
     1
290
     1
176
     1
290
     1
176
     1
290
     0
176
     1
290
     0
176
     1
290
     0
176
     1
290
     0
176
     1
290
     0
176
     1
290
     0
176
     1
 90
       50
176
     1
 40
0.0
176
     1
 40
1.0
176
     1
 90
        0
176
     1
 62
    18
420
        0
176
     1
 90
       50
176
     1
 90
        3
176
     1
 62
     5
420
      255
176
     1
290
     0
176
     1
 90
       50
176
     1
 90
       50
176
     1
 90
       50
176
     1
290
     0
176
     1
 90
       50
176
     1
 62
   256
176
     0
 40
1.0
176
     0
 90
        2
176
     1
  1
strokes_ogs.tif
176
     1
290
     0
176
     1
 40
1.0
176
     1
 40
1.0
176
     1
  0
VISUALSTYLE
  5
3B
102
{ACAD_REACTORS
330
29
102
}
330
29
100
AcDbVisualStyle
  2
Sketchy
 70
    24
177
     3
291
     0
 70
    58
 90
        1
176
     1
 90
        2
176
     1
 90
        2
176
     1
 90
        0
176
     1
 40
0.6
176
     1
 40
30.0
176
     1
 62
     7
420
 16777215
176
     1
 90
        2
176
     1
 90
        2
176
     1
 62
     7
176
     1
 62
     7
176
     1
 90
        1
176
     1
 90
        1
176
     1
 40
40.0
176
     1
 90
       11
176
     1
 62
     7
176
     1
 40
1.0
176
     1
 90
        1
176
     1
 90
        6
176
     1
 90
        2
176
     1
 62
     7
176
     1
 90
        6
176
     1
 90
        0
176
     1
 90
        0
176
     1
290
     0
176
     1
 90
        1
176
     1
 40
0.0
176
     1
 90
        0
176
     1
290
     0
176
     1
290
     1
176
     1
290
     1
176
     1
290
     0
176
     1
290
     0
176
     1
290
     0
176
     1
290
     0
176
     1
290
     0
176
     1
290
     0
176
     1
 90
       50
176
     1
 40
0.0
176
     1
 40
1.0
176
     1
 90
        0
176
     1
 62
    18
420
        0
176
     1
 90
       50
176
     1
 90
        3
176
     1
 62
     5
420
      255
176
     1
290
     0
176
     1
 90
       50
176
     1
 90
       50
176
     1
 90
       50
176
     1
290
     0
176
     1
 90
       50
176
     1
 62
   256
176
     0
 40
1.0
176
     0
 90
        2
176
     1
  1
strokes_ogs.tif
176
     1
290
     0
176
     1
 40
1.0
176
     1
 40
1.0
176
     1
  0
VISUALSTYLE
  5
36
102
{ACAD_REACTORS
330
29
102
}
330
29
100
AcDbVisualStyle
  2
Thicken
 70
    13
177
     3
291
     1
 70
    58
 90
        2
176
     1
 90
        2
176
     1
 90
        0
176
     1
 90
        0
176
     1
 40
0.6
176
     1
 40
30.0
176
     1
 62
     7
420
 16777215
176
     1
 90
        1
176
     1
 90
        4
176
     1
 62
     7
176
     1
 62
   257
176
     1
 90
        1
176
     1
 90
        1
176
     1
 40
1.0
176
     1
 90
       12
176
     1
 62
     7
176
     1
 40
1.0
176
     1
 90
        1
176
     1
 90
        6
176
     1
 90
        2
176
     1
 62
     7
176
     1
 90
        5
176
     1
 90
        0
176
     1
 90
        0
176
     1
290
     0
176
     1
 90
        1
176
     1
 40
0.0
176
     1
 90
        0
176
     1
290
     0
176
     1
290
     1
176
     1
290
     1
176
     1
290
     0
176
     1
290
     0
176
     1
290
     0
176
     1
290
     0
176
     1
290
     0
176
     1
290
     0
176
     1
 90
       50
176
     1
 40
0.0
176
     1
 40
1.0
176
     1
 90
        0
176
     1
 62
    18
420
        0
176
     1
 90
       50
176
     1
 90
        3
176
     1
 62
     5
420
      255
176
     1
290
     0
176
     1
 90
       50
176
     1
 90
       50
176
     1
 90
       50
176
     1
290
     0
176
     1
 90
       50
176
     1
 62
   256
176
     0
 40
1.0
176
     0
 90
        2
176
     1
  1
strokes_ogs.tif
176
     1
290
     0
176
     1
 40
1.0
176
     1
 40
1.0
176
     1
  0
VISUALSTYLE
  5
30
102
{ACAD_REACTORS
330
29
102
}
330
29
100
AcDbVisualStyle
  2
Wireframe
 70
     5
177
     3
291
     0
 70
    58
 90
        0
176
     1
 90
        2
176
     1
 90
        0
176
     1
 90
        0
176
     1
 40
0.6
176
     1
 40
30.0
176
     1
 62
     7
420
 16777215
176
     1
 90
        1
176
     1
 90
        4
176
     1
 62
     7
176
     1
 62
   257
176
     1
 90
        1
176
     1
 90
        1
176
     1
 40
1.0
176
     1
 90
        0
176
     1
 62
   257
176
     1
 40
1.0
176
     1
 90
        1
176
     1
 90
        6
176
     1
 90
        2
176
     1
 62
     7
176
     1
 90
        3
176
     1
 90
        0
176
     1
 90
        0
176
     1
290
     0
176
     1
 90
        1
176
     1
 40
0.0
176
     1
 90
        0
176
     1
290
     0
176
     1
290
     1
176
     1
290
     1
176
     1
290
     0
176
     1
290
     0
176
     1
290
     0
176
     1
290
     0
176
     1
290
     0
176
     1
290
     0
176
     1
 90
       50
176
     1
 40
0.0
176
     1
 40
1.0
176
     1
 90
        0
176
     1
 62
    18
420
        0
176
     1
 90
       50
176
     1
 90
        3
176
     1
 62
     5
420
      255
176
     1
290
     0
176
     1
 90
       50
176
     1
 90
       50
176
     1
 90
       50
176
     1
290
     0
176
     1
 90
       50
176
     1
 62
   256
176
     0
 40
1.0
176
     0
 90
        2
176
     1
  1
strokes_ogs.tif
176
     1
290
     0
176
     1
 40
1.0
176
     1
 40
1.0
176
     1
  0
VISUALSTYLE
  5
3C
102
{ACAD_REACTORS
330
29
102
}
330
29
100
AcDbVisualStyle
  2
X-Ray
 70
    25
177
     3
291
     0
 70
    58
 90
        2
176
     1
 90
        2
176
     1
 90
        1
176
     1
 90
        1
176
     1
 40
0.5
176
     1
 40
30.0
176
     1
 62
     7
420
 16777215
176
     1
 90
        1
176
     1
 90
        0
176
     1
 62
     7
176
     1
 62
   257
176
     1
 90
        1
176
     1
 90
        1
176
     1
 40
1.0
176
     1
 90
        8
176
     1
 62
     7
176
     1
 40
1.0
176
     1
 90
        1
176
     1
 90
        6
176
     1
 90
        2
176
     1
 62
     7
176
     1
 90
        3
176
     1
 90
        0
176
     1
 90
        0
176
     1
290
     0
176
     1
 90
       13
176
     1
 40
0.0
176
     1
 90
        0
176
     1
290
     0
176
     1
290
     1
176
     1
290
     1
176
     1
290
     0
176
     1
290
     0
176
     1
290
     0
176
     1
290
     0
176
     1
290
     0
176
     1
290
     0
176
     1
 90
       50
176
     1
 40
0.0
176
     1
 40
1.0
176
     1
 90
        0
176
     1
 62
    18
420
        0
176
     1
 90
       50
176
     1
 90
        3
176
     1
 62
     5
420
      255
176
     1
290
     0
176
     1
 90
       50
176
     1
 90
       50
176
     1
 90
       50
176
     1
290
     0
176
     1
 90
       50
176
     1
 62
   256
176
     0
 40
1.0
176
     0
 90
        2
176
     1
  1
strokes_ogs.tif
176
     1
290
     0
176
     1
 40
1.0
176
     1
 40
1.0
176
     1
  0
DICTIONARYVAR
  5
539
102
{ACAD_REACTORS
330
533
102
}
330
533
100
DictionaryVariables
280
     0
  1
1:1
  0
DICTIONARYVAR
  5
535
102
{ACAD_REACTORS
330
533
102
}
330
533
100
DictionaryVariables
280
     0
  1
STANDARD
  0
DICTIONARYVAR
  5
534
102
{ACAD_REACTORS
330
533
102
}
330
533
100
DictionaryVariables
280
     0
  1
STANDARD
  0
DICTIONARYVAR
  5
536
102
{ACAD_REACTORS
330
533
102
}
330
533
100
DictionaryVariables
280
     0
  1
Imperial24
  0
DICTIONARYVAR
  5
537
102
{ACAD_REACTORS
330
533
102
}
330
533
100
DictionaryVariables
280
     0
  1
Imperial24
  0
DICTIONARYVAR
  5
53B
102
{ACAD_REACTORS
330
533
102
}
330
533
100
DictionaryVariables
280
     0
  1
1
  0
DICTIONARYVAR
  5
53C
102
{ACAD_REACTORS
330
533
102
}
330
533
100
DictionaryVariables
280
     0
  1
15
  0
DICTIONARYVAR
  5
53A
102
{ACAD_REACTORS
330
533
102
}
330
533
100
DictionaryVariables
280
     0
  1
0
  0
DICTIONARYVAR
  5
538
102
{ACAD_REACTORS
330
533
102
}
330
533
100
DictionaryVariables
280
     0
  1
0
  0
DICTIONARY
  5
1A
330
19
100
AcDbDictionary
280
     1
281
     1
  3
BUMPTILE
360
1C
  3
DIFFUSETILE
360
1B
  3
OPACITYTILE
360
1F
  3
REFLECTIONTILE
360
1E
  3
REFRACTIONTILE
360
20
  3
SPECULARTILE
360
1D
  0
DICTIONARY
  5
12
330
11
100
AcDbDictionary
280
     1
281
     1
  3
BUMPTILE
360
14
  3
DIFFUSETILE
360
13
  3
OPACITYTILE
360
17
  3
REFLECTIONTILE
360
16
  3
REFRACTIONTILE
360
18
  3
SPECULARTILE
360
15
  0
DICTIONARY
  5
22
330
21
100
AcDbDictionary
280
     1
281
     1
  3
BUMPTILE
360
24
  3
DIFFUSETILE
360
23
  3
OPACITYTILE
360
27
  3
REFLECTIONTILE
360
26
  3
REFRACTIONTILE
360
28
  3
SPECULARTILE
360
25
  0
DICTIONARY
  5
543
330
64
100
AcDbDictionary
280
     1
281
     1
  3
ACAD_ROUNDTRIP_2008_TABLESTYLE_CELLSTYLEMAP
360
544
  0
XRECORD
  5
1C
102
{ACAD_REACTORS
330
1A
102
}
330
1A
100
AcDbXrecord
280
     1
270
     1
271
     1
  0
XRECORD
  5
1B
102
{ACAD_REACTORS
330
1A
102
}
330
1A
100
AcDbXrecord
280
     1
270
     1
271
     1
  0
XRECORD
  5
1F
102
{ACAD_REACTORS
330
1A
102
}
330
1A
100
AcDbXrecord
280
     1
270
     1
271
     1
  0
XRECORD
  5
1E
102
{ACAD_REACTORS
330
1A
102
}
330
1A
100
AcDbXrecord
280
     1
270
     1
271
     1
  0
XRECORD
  5
20
102
{ACAD_REACTORS
330
1A
102
}
330
1A
100
AcDbXrecord
280
     1
270
     1
271
     1
  0
XRECORD
  5
1D
102
{ACAD_REACTORS
330
1A
102
}
330
1A
100
AcDbXrecord
280
     1
270
     1
271
     1
  0
XRECORD
  5
14
102
{ACAD_REACTORS
330
12
102
}
330
12
100
AcDbXrecord
280
     1
270
     1
271
     1
  0
XRECORD
  5
13
102
{ACAD_REACTORS
330
12
102
}
330
12
100
AcDbXrecord
280
     1
270
     1
271
     1
  0
XRECORD
  5
17
102
{ACAD_REACTORS
330
12
102
}
330
12
100
AcDbXrecord
280
     1
270
     1
271
     1
  0
XRECORD
  5
16
102
{ACAD_REACTORS
330
12
102
}
330
12
100
AcDbXrecord
280
     1
270
     1
271
     1
  0
XRECORD
  5
18
102
{ACAD_REACTORS
330
12
102
}
330
12
100
AcDbXrecord
280
     1
270
     1
271
     1
  0
XRECORD
  5
15
102
{ACAD_REACTORS
330
12
102
}
330
12
100
AcDbXrecord
280
     1
270
     1
271
     1
  0
XRECORD
  5
24
102
{ACAD_REACTORS
330
22
102
}
330
22
100
AcDbXrecord
280
     1
270
     1
271
     1
  0
XRECORD
  5
23
102
{ACAD_REACTORS
330
22
102
}
330
22
100
AcDbXrecord
280
     1
270
     1
271
     1
  0
XRECORD
  5
27
102
{ACAD_REACTORS
330
22
102
}
330
22
100
AcDbXrecord
280
     1
270
     1
271
     1
  0
XRECORD
  5
26
102
{ACAD_REACTORS
330
22
102
}
330
22
100
AcDbXrecord
280
     1
270
     1
271
     1
  0
XRECORD
  5
28
102
{ACAD_REACTORS
330
22
102
}
330
22
100
AcDbXrecord
280
     1
270
     1
271
     1
  0
XRECORD
  5
25
102
{ACAD_REACTORS
330
22
102
}
330
22
100
AcDbXrecord
280
     1
270
     1
271
     1
  0
CELLSTYLEMAP
  5
544
102
{ACAD_REACTORS
330
543
102
}
330
543
100
AcDbCellStyleMap
 90
        3
300
CELLSTYLE
  1
TABLEFORMAT_BEGIN
 90
        5
170
     1
 91
        0
 92
    32768
 62
   257
 93
        1
300
CONTENTFORMAT
  1
CONTENTFORMAT_BEGIN
 90
        0
 91
        0
 92
      512
 93
        0
300

 40
0.0
140
1.0
 94
        5
 62
     0
340
55
144
0.25
309
CONTENTFORMAT_END
171
     0
 94
        0
309
TABLEFORMAT_END
  1
CELLSTYLE_BEGIN
 90
        1
 91
        1
300
_TITLE
309
CELLSTYLE_END
300
CELLSTYLE
  1
TABLEFORMAT_BEGIN
 90
        5
170
     1
 91
        0
 92
        0
 62
   257
 93
        1
300
CONTENTFORMAT
  1
CONTENTFORMAT_BEGIN
 90
        0
 91
        0
 92
      512
 93
        0
300

 40
0.0
140
1.0
 94
        5
 62
     0
340
55
144
0.18
309
CONTENTFORMAT_END
171
     0
 94
        0
309
TABLEFORMAT_END
  1
CELLSTYLE_BEGIN
 90
        2
 91
        1
300
_HEADER
309
CELLSTYLE_END
300
CELLSTYLE
  1
TABLEFORMAT_BEGIN
 90
        5
170
     1
 91
        0
 92
        0
 62
   257
 93
        1
300
CONTENTFORMAT
  1
CONTENTFORMAT_BEGIN
 90
        0
 91
        0
 92
      512
 93
        0
300

 40
0.0
140
1.0
 94
        2
 62
     0
340
55
144
0.18
309
CONTENTFORMAT_END
171
     0
 94
        0
309
TABLEFORMAT_END
  1
CELLSTYLE_BEGIN
 90
        3
 91
        2
300
_DATA
309
CELLSTYLE_END
  0
ENDSEC
  0
EOF
